<svg width="180" height="222" viewBox="0 0 177 183" fill="none" xmlns="http://www.w3.org/2000/svg">
<path d="M143.569 172.547C140.907 182.62 135.381 181.22 128.561 179.486C124.881 178.551 119.409 175.759 115.378 172.516C111.94 169.746 109.552 166.644 110.229 164.082C111.7 158.519 127.066 157.607 133.884 159.339C139.952 160.879 144.997 162.161 144.162 169.519C144.037 170.541 143.839 171.552 143.569 172.547V172.547Z" fill="white"/>
<path d="M135.46 180.841C133.35 180.841 130.989 180.242 128.527 179.616C124.617 178.624 119.174 175.747 115.291 172.62C111.325 169.425 109.48 166.381 110.097 164.048C110.996 160.64 116.708 159.323 120.032 158.841C124.771 158.154 130.352 158.299 133.92 159.207C139.945 160.737 145.149 162.058 144.301 169.533C144.175 170.562 143.975 171.581 143.704 172.583L143.571 172.549L143.704 172.583C142.469 177.258 140.549 179.797 137.662 180.578C136.944 180.762 136.203 180.85 135.46 180.841V180.841ZM126.235 158.684C124.173 158.681 122.114 158.823 120.073 159.111C116.817 159.585 111.224 160.861 110.364 164.118C109.776 166.343 111.589 169.289 115.467 172.413C119.322 175.517 124.721 178.372 128.597 179.356C131.919 180.2 135.058 180.997 137.589 180.314C140.371 179.564 142.229 177.086 143.437 172.515C143.704 171.526 143.901 170.521 144.026 169.506C144.847 162.264 139.995 161.032 133.851 159.472C131.801 158.95 129.078 158.682 126.236 158.682L126.235 158.684Z" fill="#371A45"/>
<g opacity="0.35">
<path opacity="0.35" d="M143.059 170.225C138.754 173.108 133.757 169.598 133.757 169.598C128.275 172.877 118.934 172.935 112.207 169.038C108.769 166.268 109.553 166.644 110.229 164.082C111.7 158.519 127.066 157.607 133.884 159.339C139.952 160.879 145.392 161.394 143.059 170.225Z" fill="#371A45"/>
</g>
<path d="M135.456 181.667C133.244 181.667 130.831 181.058 128.316 180.417C124.649 179.486 119.575 176.901 115.692 173.984C112.231 171.386 108.31 167.517 109.281 163.841C110.252 160.165 115.597 158.649 119.909 158.023C124.748 157.322 130.465 157.476 134.132 158.407C140.969 160.142 147.426 161.782 144.519 172.786C143.2 177.777 141.092 180.504 137.883 181.369C137.091 181.575 136.275 181.675 135.456 181.667V181.667ZM126.202 159.482C119.424 159.482 112.031 161.093 111.18 164.324C110.641 166.366 112.72 169.331 116.885 172.458C120.58 175.232 125.372 177.683 128.808 178.556C132.157 179.406 135.05 180.141 137.364 179.517C138.913 179.099 141.142 177.897 142.618 172.306C145.037 163.165 140.502 162.013 133.64 160.269L133.886 159.338L133.64 160.269C131.574 159.744 128.937 159.482 126.202 159.482V159.482Z" fill="#371A45"/>
<path d="M154.322 169.67C150.673 168.675 146.97 170.498 146.05 173.741C145.13 176.984 147.342 180.419 150.991 181.413C153.645 182.136 161.7 180.983 165.892 180.301C166.127 180.263 166.346 180.16 166.524 180.004C166.701 179.848 166.829 179.645 166.893 179.42C166.957 179.195 166.954 178.957 166.884 178.734C166.814 178.511 166.681 178.312 166.499 178.16C163.267 175.454 156.976 170.391 154.322 169.67Z" fill="#D73C2C"/>
<path d="M152.18 170.715C151.607 170.543 151.004 170.486 150.408 170.546C149.811 170.607 149.233 170.783 148.708 171.066C148.182 171.348 147.719 171.731 147.347 172.192C146.974 172.652 146.7 173.181 146.539 173.748C146.379 174.314 146.335 174.906 146.412 175.489C146.488 176.072 146.683 176.634 146.984 177.142C147.286 177.65 147.688 178.094 148.167 178.447C148.646 178.8 149.193 179.056 149.774 179.199C152.176 179.854 161.405 177.798 161.405 177.798C161.405 177.798 154.583 171.37 152.18 170.715Z" fill="#E5A900"/>
<path d="M150.337 172.186C148.771 171.759 147.182 172.541 146.788 173.933C146.393 175.325 147.341 176.798 148.908 177.225C150.475 177.651 156.416 176.557 156.416 176.557C156.416 176.557 151.902 172.612 150.337 172.186Z" fill="#FFFF00"/>
<path d="M154.544 182.468C152.831 182.468 151.401 182.353 150.502 182.069C148.526 181.443 146.892 180.166 145.899 178.473C144.888 176.75 144.66 174.803 145.256 172.992C145.853 171.182 147.199 169.734 149.049 168.916C150.865 168.112 152.952 168.014 154.924 168.64C157.557 169.474 162.999 174.096 167.1 177.827C167.411 178.11 167.634 178.475 167.741 178.878C167.849 179.281 167.836 179.706 167.706 180.102C167.575 180.499 167.331 180.85 167.003 181.116C166.676 181.381 166.277 181.549 165.855 181.6C162.204 182.043 157.846 182.468 154.544 182.468ZM152.32 170.156C151.471 170.153 150.631 170.328 149.856 170.668C148.518 171.26 147.548 172.294 147.123 173.582C146.699 174.869 146.868 176.266 147.6 177.512C148.349 178.79 149.594 179.757 151.104 180.236C152.84 180.785 158.266 180.581 165.621 179.689C165.672 179.683 165.72 179.663 165.76 179.631C165.799 179.599 165.829 179.556 165.844 179.508C165.86 179.46 165.862 179.409 165.849 179.36C165.836 179.312 165.809 179.268 165.771 179.234C160.341 174.294 156.063 171.017 154.327 170.467C153.679 170.261 153.002 170.156 152.32 170.156V170.156Z" fill="#371A45"/>
<path d="M145.558 179.061L148.562 168.554C148.925 167.285 147.871 165.953 146.35 165.761L144.153 165.484L140.16 179.442L142.184 180.322C143.585 180.932 145.195 180.332 145.558 179.061Z" fill="#F92323"/>
<g opacity="0.7">
<path opacity="0.7" d="M146.354 165.761L144.156 165.484L143.566 167.543L145.565 167.795C147.086 167.988 148.139 169.319 147.777 170.589L145.139 179.809C145.335 179.595 145.479 179.34 145.559 179.064L148.562 168.554C148.927 167.285 147.871 165.953 146.354 165.761Z" fill="white"/>
</g>
<g opacity="0.35">
<path opacity="0.35" d="M148.563 168.555L145.557 179.057C145.193 180.329 143.585 180.928 142.185 180.317L140.16 179.436L142.159 172.457L144.044 173.28C145.445 173.89 147.052 173.29 147.416 172.021L148.62 167.814C148.651 168.062 148.632 168.314 148.563 168.555Z" fill="#371A45"/>
</g>
<path d="M143.591 181.68C143.125 181.679 142.664 181.582 142.238 181.394L138.989 179.979L143.44 164.424L146.965 164.869C147.425 164.923 147.867 165.073 148.262 165.309C148.657 165.546 148.996 165.863 149.254 166.239C149.474 166.552 149.62 166.909 149.684 167.283C149.748 167.658 149.728 168.041 149.625 168.407L146.386 179.723C146.281 180.089 146.096 180.428 145.842 180.716C145.589 181.005 145.275 181.235 144.921 181.392C144.505 181.583 144.051 181.681 143.591 181.68V181.68ZM141.338 178.898L143.036 179.638C143.2 179.713 143.379 179.752 143.56 179.754C143.741 179.757 143.92 179.721 144.087 179.651C144.184 179.611 144.272 179.551 144.344 179.474C144.415 179.398 144.469 179.307 144.501 179.208L147.734 167.889C147.76 167.788 147.762 167.684 147.742 167.582C147.722 167.48 147.679 167.384 147.617 167.3C147.513 167.155 147.378 167.034 147.222 166.943C147.066 166.853 146.893 166.796 146.713 166.776L144.871 166.543L141.338 178.898Z" fill="#371A45"/>
<path d="M128.222 180.357C127.962 180.357 127.713 180.255 127.529 180.075C127.345 179.894 127.242 179.65 127.242 179.395V177.328C127.252 171.474 128.774 165.718 131.666 160.597L132.689 158.789C132.818 158.572 133.028 158.412 133.276 158.345C133.523 158.278 133.788 158.309 134.012 158.431C134.237 158.553 134.404 158.756 134.477 158.997C134.55 159.239 134.524 159.498 134.404 159.721L133.382 161.529C130.652 166.365 129.217 171.8 129.208 177.326V179.394C129.208 179.52 129.183 179.646 129.134 179.763C129.084 179.88 129.011 179.987 128.92 180.076C128.828 180.166 128.719 180.237 128.6 180.285C128.48 180.333 128.352 180.358 128.222 180.357V180.357Z" fill="#371A45"/>
<path d="M142.888 125.266C149.707 126.997 155.234 128.401 152.572 138.474C149.91 148.548 144.383 147.147 137.565 145.414C130.747 143.681 117.763 135.574 119.233 130.01C120.703 124.447 136.07 123.536 142.888 125.266Z" fill="white"/>
<path d="M144.46 146.768C142.351 146.768 139.99 146.169 137.53 145.544C133.962 144.638 129.009 142.111 125.207 139.256C122.539 137.253 118.199 133.384 119.099 129.973C120.575 124.389 135.784 123.319 142.923 125.132C149.619 126.832 155.402 128.3 152.705 138.505C151.471 143.18 149.55 145.72 146.663 146.5C145.945 146.686 145.204 146.776 144.46 146.768V146.768ZM135.327 124.62C128.335 124.62 120.369 126.246 119.367 130.041C118.506 133.299 122.762 137.076 125.375 139.038C129.151 141.874 134.063 144.382 137.599 145.28C140.921 146.123 144.059 146.919 146.59 146.237C149.372 145.487 151.23 143.008 152.438 138.437C155.064 128.494 149.676 127.126 142.854 125.394L142.889 125.263L142.854 125.394C140.864 124.893 138.176 124.622 135.327 124.622V124.62Z" fill="#371A45"/>
<g opacity="0.35">
<path opacity="0.35" d="M152.572 138.474C149.91 148.549 144.382 147.147 137.565 145.414C130.749 143.682 117.762 135.575 119.232 130.01C119.287 129.801 119.362 129.598 119.457 129.404C123.204 133.803 130.987 138.135 135.757 139.345C142.573 141.076 148.102 142.479 150.763 132.407C151.114 131.081 151.323 129.905 151.404 128.861C153.217 130.691 153.875 133.546 152.572 138.474Z" fill="#371A45"/>
</g>
<path d="M144.459 147.596C142.247 147.596 139.834 146.986 137.319 146.345C133.655 145.414 128.578 142.829 124.695 139.913C121.234 137.315 117.313 133.446 118.284 129.77C119.255 126.094 124.599 124.577 128.912 123.952C133.751 123.25 139.468 123.405 143.134 124.336C149.971 126.071 156.429 127.711 153.521 138.715C152.202 143.706 150.094 146.433 146.885 147.298C146.094 147.504 145.277 147.604 144.459 147.596V147.596ZM135.205 125.41C128.426 125.41 121.034 127.021 120.183 130.252C119.643 132.294 121.722 135.259 125.887 138.386C129.583 141.161 134.374 143.611 137.811 144.484C141.16 145.334 144.053 146.069 146.367 145.445C147.916 145.027 150.145 143.826 151.62 138.235C154.036 129.092 149.503 127.94 142.641 126.198L142.887 125.267L142.641 126.198C140.577 125.673 137.94 125.41 135.205 125.41Z" fill="#371A45"/>
<path d="M163.325 135.596C159.677 134.602 155.973 136.425 155.054 139.668C154.135 142.911 156.346 146.345 159.994 147.34C162.649 148.063 170.703 146.91 174.896 146.228C175.131 146.19 175.35 146.087 175.527 145.931C175.704 145.775 175.832 145.573 175.896 145.348C175.959 145.123 175.956 144.885 175.887 144.662C175.817 144.438 175.684 144.239 175.503 144.088C172.273 141.382 165.983 136.32 163.325 135.596Z" fill="#D73C2C"/>
<path d="M160.989 136.591C158.693 135.965 156.294 137.357 155.629 139.7C154.964 142.042 156.287 144.449 158.583 145.074C160.878 145.7 169.749 143.548 169.749 143.548C169.749 143.548 163.286 137.214 160.989 136.591Z" fill="#E5A900"/>
<path d="M159.338 138.114C157.773 137.687 156.183 138.47 155.789 139.861C155.394 141.252 156.342 142.726 157.909 143.153C159.476 143.58 165.418 142.485 165.418 142.485C165.418 142.485 160.904 138.541 159.338 138.114Z" fill="#FFFF00"/>
<path d="M163.548 148.394C161.833 148.394 160.404 148.279 159.504 147.995C157.529 147.369 155.895 146.093 154.902 144.399C153.891 142.676 153.663 140.729 154.26 138.918C154.857 137.108 156.203 135.661 158.052 134.842C159.867 134.039 161.956 133.94 163.928 134.566C166.561 135.4 172.002 140.022 176.103 143.753C176.415 144.036 176.637 144.401 176.745 144.804C176.852 145.207 176.839 145.632 176.709 146.029C176.578 146.425 176.334 146.777 176.007 147.042C175.679 147.308 175.281 147.476 174.859 147.526C171.207 147.972 166.85 148.394 163.548 148.394ZM161.324 136.082C160.474 136.079 159.634 136.254 158.859 136.595C157.521 137.187 156.551 138.221 156.126 139.509C155.702 140.796 155.871 142.192 156.602 143.439C157.352 144.717 158.597 145.685 160.108 146.162C161.844 146.712 167.269 146.508 174.621 145.616C174.672 145.61 174.72 145.59 174.76 145.558C174.8 145.526 174.829 145.483 174.845 145.435C174.861 145.387 174.863 145.336 174.849 145.287C174.836 145.238 174.809 145.194 174.771 145.16C169.342 140.221 165.064 136.944 163.327 136.394C162.68 136.189 162.004 136.084 161.324 136.084V136.082Z" fill="#371A45"/>
<path d="M154.561 144.99L157.567 134.483C157.931 133.213 156.876 131.881 155.355 131.689L153.158 131.412L149.165 145.37L151.19 146.251C152.592 146.86 154.198 146.26 154.561 144.99Z" fill="#F92323"/>
<g opacity="0.7">
<path opacity="0.7" d="M155.356 131.689L153.159 131.412L152.621 133.293L154.809 133.569C156.33 133.761 157.383 135.093 157.021 136.363L154.512 145.131C154.53 145.084 154.548 145.038 154.562 144.99L157.568 134.483C157.931 133.216 156.877 131.881 155.356 131.689Z" fill="white"/>
</g>
<g opacity="0.35">
<path opacity="0.35" d="M157.567 134.483L154.561 144.99C154.197 146.261 152.59 146.86 151.19 146.249L149.165 145.368L151.163 138.389L153.049 139.212C154.45 139.822 156.057 139.221 156.421 137.952L157.625 133.746C157.656 133.993 157.636 134.243 157.567 134.483V134.483Z" fill="#371A45"/>
</g>
<path d="M152.593 147.608C152.126 147.607 151.665 147.51 151.239 147.323L147.99 145.907L152.441 130.352L155.966 130.797C156.426 130.851 156.868 131.001 157.263 131.238C157.658 131.474 157.997 131.791 158.256 132.167C158.475 132.48 158.622 132.837 158.685 133.211C158.749 133.586 158.729 133.969 158.626 134.335L155.388 145.651C155.282 146.016 155.096 146.355 154.842 146.642C154.589 146.93 154.274 147.16 153.921 147.316C153.505 147.507 153.052 147.607 152.593 147.608V147.608ZM150.34 144.826L152.037 145.566C152.201 145.641 152.38 145.681 152.561 145.683C152.742 145.685 152.921 145.65 153.088 145.579C153.186 145.539 153.273 145.479 153.345 145.403C153.417 145.326 153.47 145.235 153.502 145.136L156.741 133.82C156.766 133.72 156.769 133.615 156.749 133.513C156.728 133.412 156.686 133.315 156.623 133.232C156.519 133.086 156.384 132.964 156.228 132.874C156.072 132.784 155.899 132.727 155.719 132.707L153.876 132.474L150.34 144.826Z" fill="#371A45"/>
<path d="M137.225 146.285C137.096 146.285 136.969 146.26 136.85 146.212C136.731 146.163 136.623 146.093 136.532 146.003C136.441 145.914 136.369 145.808 136.319 145.691C136.27 145.574 136.245 145.449 136.245 145.323V143.256C136.255 137.402 137.777 131.647 140.669 126.526L141.692 124.717C141.818 124.494 142.029 124.329 142.279 124.259C142.529 124.189 142.798 124.219 143.025 124.342C143.253 124.466 143.421 124.673 143.493 124.918C143.565 125.163 143.534 125.426 143.408 125.65L142.381 127.457C139.651 132.293 138.215 137.729 138.206 143.256V145.324C138.206 145.579 138.103 145.823 137.919 146.004C137.735 146.184 137.485 146.285 137.225 146.285V146.285Z" fill="#371A45"/>
<path d="M144.894 154.687C143.77 158.988 140.046 162.383 134.375 164.796C133.784 165.049 133.171 165.29 132.537 165.519C131.411 165.931 130.221 166.307 128.969 166.648C125.959 167.472 122.598 168.096 118.946 168.517C116.313 168.817 113.526 169.01 110.61 169.097C107.983 169.173 105.25 169.165 102.43 169.059C99.8171 168.969 97.1325 168.797 94.3762 168.544C85.593 167.749 76.1448 166.156 66.4395 163.714C50.5861 159.726 36.8321 152.619 26.1548 145.168C10.2738 134.097 1.19406 122.258 2.1079 118.77C3.05148 115.171 16.5048 109.21 35.4883 106.988C35.7136 106.958 35.9383 106.934 36.1678 106.907C43.2385 106.117 50.3645 105.911 57.4704 106.291C64.9084 106.692 72.6982 107.766 80.5655 109.743C90.2715 112.183 99.336 115.249 107.426 118.696C107.718 118.819 108.006 118.943 108.293 119.067C110.518 120.032 112.665 121.026 114.733 122.048C117.258 123.29 119.654 124.566 121.922 125.877C122.567 126.249 123.2 126.623 123.82 127C125.626 128.092 127.334 129.198 128.943 130.32C130.949 131.72 132.788 133.136 134.46 134.568C135.259 135.246 136.016 135.93 136.733 136.62C138.136 137.943 139.442 139.361 140.64 140.865C144.428 145.657 146.022 150.387 144.894 154.687Z" fill="white"/>
<path d="M107.156 169.281C105.598 169.281 104.015 169.253 102.423 169.195C99.7916 169.102 97.079 168.928 94.361 168.679C85.3055 167.86 75.896 166.234 66.4029 163.845C48.6665 159.384 34.6816 151.286 26.0726 145.28C9.80582 133.936 1.0738 122.174 1.97452 118.738C2.99205 114.854 16.9998 109.016 35.4724 106.854C35.6798 106.826 35.8871 106.803 36.0945 106.779L36.1505 106.772C43.229 105.981 50.3629 105.775 57.4766 106.156C65.393 106.583 73.1724 107.745 80.5987 109.612C90.0828 111.998 99.1245 115.012 107.48 118.572C107.771 118.695 108.061 118.819 108.348 118.943C110.543 119.895 112.713 120.898 114.794 121.924C117.292 123.153 119.714 124.443 121.993 125.758C122.641 126.133 123.281 126.511 123.892 126.881C125.665 127.953 127.392 129.072 129.024 130.206C131.024 131.603 132.884 133.034 134.554 134.463C135.36 135.15 136.127 135.842 136.835 136.521C138.242 137.847 139.552 139.27 140.754 140.778C144.707 145.784 146.146 150.475 145.032 154.721C143.922 158.969 140.356 162.401 134.433 164.922C133.84 165.175 133.219 165.419 132.589 165.648C131.46 166.059 130.256 166.44 129.01 166.779C126.015 167.6 122.634 168.23 118.962 168.652C116.336 168.951 113.53 169.147 110.615 169.233C109.478 169.265 108.325 169.281 107.156 169.281ZM50.5488 106.242C45.7488 106.241 40.9527 106.508 36.1837 107.042L36.127 107.048C35.9196 107.072 35.7122 107.095 35.5049 107.122C16.2007 109.382 3.12132 115.449 2.24204 118.804C1.36275 122.159 10.0609 133.778 26.2288 145.058C34.8185 151.053 48.7723 159.132 66.4679 163.583C75.9465 165.967 85.3393 167.591 94.3824 168.409C97.0956 168.658 99.8026 168.831 102.429 168.924C105.209 169.025 107.959 169.038 110.599 168.962C113.507 168.875 116.308 168.68 118.924 168.382C122.581 167.961 125.948 167.334 128.928 166.517C130.168 166.178 131.365 165.802 132.485 165.393C133.111 165.166 133.73 164.924 134.317 164.672C140.157 162.186 143.669 158.816 144.755 154.653C145.847 150.493 144.424 145.881 140.526 140.944C139.332 139.446 138.031 138.033 136.632 136.714C135.931 136.037 135.169 135.351 134.366 134.667C132.707 133.244 130.852 131.818 128.859 130.427C127.233 129.296 125.511 128.181 123.744 127.112C123.133 126.742 122.496 126.367 121.849 125.992C119.576 124.68 117.16 123.393 114.666 122.167C112.589 121.142 110.424 120.141 108.232 119.191C107.946 119.066 107.657 118.944 107.366 118.82C99.027 115.267 89.9964 112.257 80.5261 109.876C73.1178 108.014 65.3563 106.853 57.458 106.427C55.1621 106.304 52.859 106.242 50.5488 106.242Z" fill="#371A45"/>
<g opacity="0.35">
<path opacity="0.35" d="M123.746 127.291C117.84 127.726 104.183 125.24 88.7084 120.675C70.522 115.312 56.0463 108.912 54.0762 105.55C61.8874 105.971 70.0658 107.098 78.3263 109.175C88.5169 111.738 98.0356 114.955 106.53 118.574C106.836 118.704 107.14 118.833 107.44 118.965C109.777 119.977 112.031 121.02 114.202 122.092C116.853 123.395 119.37 124.735 121.753 126.112C122.427 126.503 123.092 126.896 123.746 127.291Z" fill="#371A45"/>
</g>
<g opacity="0.35">
<path opacity="0.35" d="M128.882 166.264C128.909 166.393 128.937 166.521 128.968 166.648C130.221 166.308 131.41 165.932 132.536 165.521C133.132 165.304 133.711 165.077 134.268 164.844L133.699 164.595V164.582C132.13 165.24 130.522 165.802 128.882 166.264V166.264Z" fill="black"/>
<path opacity="0.35" d="M128.868 166.815L128.835 166.679C128.804 166.551 128.776 166.423 128.748 166.292L128.722 166.169L128.845 166.134C130.48 165.674 132.084 165.114 133.648 164.457L133.897 164.351L133.86 164.516L134.615 164.845L134.324 164.967C133.78 165.197 133.195 165.426 132.586 165.649C131.454 166.061 130.25 166.441 129.006 166.779L128.868 166.815ZM129.045 166.358L129.072 166.478C130.259 166.152 131.408 165.788 132.489 165.394C132.986 165.212 133.467 165.026 133.923 164.839L133.685 164.736C132.173 165.367 130.623 165.908 129.045 166.358V166.358Z" fill="#371A45"/>
</g>
<g opacity="0.35">
<path opacity="0.35" d="M25.5048 144.835C36.1723 152.297 49.9194 159.417 65.7694 163.423C75.4726 165.875 84.9174 167.481 93.7005 168.284C96.4508 168.539 99.1339 168.714 101.75 168.81C104.572 168.914 107.299 168.929 109.932 168.854C112.849 168.772 115.634 168.583 118.269 168.283C122.165 167.839 125.724 167.163 128.883 166.263C130.524 165.801 132.133 165.239 133.702 164.58V164.593L134.272 164.842C138.335 163.127 141.407 160.916 143.253 158.229C144.006 157.15 144.562 155.952 144.896 154.688C146.024 150.387 144.429 145.657 140.642 140.861C139.443 139.358 138.138 137.939 136.735 136.616C133.857 139.845 131.274 144.827 129.731 150.687C129.503 151.551 129.304 152.409 129.133 153.261C128.64 155.716 126.616 157.604 124.079 157.885C101.448 160.392 81.6173 158.113 64.8728 153.616C63.7723 153.32 63.7364 151.807 64.8189 151.453C67.5502 150.564 70.0103 149.018 71.9739 146.956C73.9375 144.894 75.3418 142.382 76.0581 139.65C78.4347 130.625 72.8928 121.419 63.6845 119.093C54.4762 116.767 45.0896 122.196 42.7123 131.222C42.1229 133.454 42.0076 135.782 42.3738 138.059C42.7399 140.337 43.5796 142.517 44.8407 144.464C45.4442 145.4 44.4205 146.538 43.3891 146.087C37.8732 143.681 32.5089 140.955 27.3249 137.922C10.4463 128.047 1.49447 118.408 1.49447 118.408C0.575088 121.896 9.64099 133.74 25.5048 144.835Z" fill="#371A45"/>
</g>
<path d="M1.38002 119.285C1.39523 119.361 1.41528 119.44 1.43602 119.521C1.47404 119.673 1.52035 119.83 1.57427 119.995C1.60261 120.082 1.63441 120.167 1.66552 120.256C1.93803 120.966 2.26836 121.653 2.65333 122.31C2.71485 122.42 2.77568 122.529 2.84273 122.638C3.29758 123.409 3.85059 124.242 4.50176 125.128C4.59301 125.254 4.68979 125.383 4.78587 125.511C5.00569 125.806 5.23658 126.105 5.47714 126.411C5.58152 126.547 5.69212 126.682 5.80203 126.818C6.47301 127.65 7.21543 128.518 8.02927 129.422C8.14817 129.553 8.26914 129.685 8.39288 129.819C9.14912 130.648 9.96389 131.495 10.8372 132.362C10.9913 132.517 11.1476 132.673 11.3065 132.827C12.178 133.685 13.1034 134.557 14.0827 135.441C14.261 135.604 14.4421 135.766 14.626 135.929C16.8152 137.885 19.2512 139.891 21.9153 141.892C22.1379 142.06 22.3626 142.226 22.5879 142.393C23.038 142.728 23.4935 143.06 23.9573 143.395C24.1875 143.561 24.4212 143.727 24.6541 143.893C24.7233 143.943 24.7924 143.99 24.8615 144.04C24.912 141.774 25.1995 139.221 25.5756 136.752C25.9212 134.499 26.3401 132.318 26.7251 130.498C26.9654 123.803 28.877 117.268 32.2926 111.466L33.2742 109.799L35.4233 106.143C17.2231 108.157 3.95981 113.624 1.65584 117.298C1.57624 117.424 1.50689 117.556 1.44846 117.693C1.40966 117.782 1.37755 117.875 1.35237 117.969C1.25905 118.323 1.26942 118.765 1.38002 119.285Z" fill="#F92323"/>
<g opacity="0.7">
<path opacity="0.7" d="M1.65527 117.298C4.53507 116.325 12.636 113.686 20.4749 112.04C25.5411 110.974 30.091 110.249 33.2743 109.8L35.4234 106.144C17.2225 108.157 3.95925 113.624 1.65527 117.298Z" fill="white"/>
</g>
<g opacity="0.35">
<path opacity="0.35" d="M1.37927 119.285C1.39448 119.361 1.41453 119.439 1.43526 119.521C1.47328 119.673 1.5196 119.83 1.57352 119.995C1.60186 120.082 1.63366 120.167 1.66476 120.256C1.93728 120.966 2.26761 121.653 2.65258 122.31C2.7141 122.419 2.77493 122.529 2.84198 122.638C3.29683 123.409 3.84984 124.242 4.50101 125.128C4.59226 125.254 4.68904 125.382 4.78512 125.511C5.00494 125.806 5.23582 126.105 5.47638 126.411C5.58076 126.547 5.69137 126.682 5.80128 126.818C6.47226 127.65 7.21468 128.518 8.02852 129.422C8.14742 129.553 8.26839 129.685 8.39213 129.819C9.14837 130.648 9.96313 131.495 10.8364 132.362C10.9906 132.517 11.1468 132.673 11.3058 132.827C12.1772 133.685 13.1026 134.557 14.0819 135.441C14.2603 135.604 14.4414 135.766 14.6252 135.929C16.8145 137.885 19.2505 139.891 21.9146 141.892C22.1372 142.06 22.3618 142.226 22.5872 142.393C23.0372 142.728 23.4927 143.06 23.9566 143.395C24.1868 143.561 24.4204 143.727 24.6534 143.893C24.7225 143.943 24.7916 143.99 24.8608 144.038C24.9112 141.771 25.1988 139.218 25.5748 136.749C18.8813 132.5 4.61991 123.043 1.44633 117.693C1.40753 117.782 1.37542 117.875 1.35024 117.969C1.2583 118.323 1.26867 118.765 1.37927 119.285Z" fill="black"/>
<path opacity="0.35" d="M24.9936 144.291L24.7862 144.15C24.7136 144.102 24.6445 144.054 24.5747 144.002L24.5367 143.975C24.3159 143.818 24.0966 143.662 23.8786 143.505C23.4141 143.166 22.9585 142.837 22.5078 142.502C22.2825 142.335 22.0571 142.169 21.8345 142C19.2693 140.072 16.8139 138.062 14.5362 136.027C14.3523 135.865 14.1712 135.702 13.9922 135.539C13.0182 134.659 12.0829 133.778 11.2126 132.921C11.0536 132.767 10.8967 132.61 10.7419 132.456C9.86326 131.582 9.03928 130.725 8.29341 129.908C8.16967 129.773 8.04801 129.642 7.92911 129.51C7.0996 128.594 6.35165 127.716 5.69841 126.9L5.59817 126.776C5.52144 126.681 5.44541 126.587 5.37213 126.494C5.13019 126.187 4.89862 125.887 4.68087 125.591C4.58409 125.462 4.48663 125.333 4.39538 125.206C3.75458 124.334 3.19396 123.492 2.72943 122.705C2.66515 122.6 2.60501 122.493 2.54487 122.386C2.15427 121.719 1.81908 121.022 1.54254 120.302L1.50936 120.208C1.48862 120.151 1.46858 120.095 1.44991 120.037C1.39185 119.87 1.34415 119.709 1.30544 119.553C1.27917 119.45 1.26189 119.38 1.24806 119.312C1.13331 118.77 1.12364 118.308 1.22041 117.935C1.24718 117.834 1.28161 117.736 1.32341 117.64L1.43125 117.391L1.5695 117.625C4.76797 123.018 19.478 132.717 25.6538 136.636L25.7284 136.684L25.7153 136.771C25.2881 139.578 25.0482 142.024 25.0033 144.041L24.9936 144.291ZM1.48171 118.012C1.39737 118.343 1.40844 118.761 1.5142 119.257C1.52733 119.321 1.54392 119.387 1.5612 119.454C1.60614 119.635 1.65176 119.788 1.70775 119.95C1.72642 120.007 1.74577 120.062 1.76513 120.116L1.79831 120.21C2.06815 120.912 2.39525 121.592 2.77644 122.243C2.84073 122.358 2.89949 122.462 2.96308 122.567C3.42346 123.347 3.97924 124.181 4.61589 125.047C4.70714 125.174 4.80253 125.301 4.89862 125.429C5.11844 125.724 5.34794 126.022 5.58988 126.327C5.66315 126.42 5.73781 126.513 5.81385 126.607L5.91408 126.731C6.56387 127.544 7.31112 128.417 8.13511 129.329C8.25331 129.46 8.37428 129.592 8.49802 129.726C9.24043 130.539 10.0617 131.394 10.9382 132.265C11.0916 132.418 11.2472 132.574 11.4062 132.728C12.2744 133.583 13.2034 134.461 14.1788 135.339C14.3572 135.501 14.5378 135.664 14.7208 135.825C16.9929 137.858 19.4428 139.86 22.0018 141.784C22.2244 141.953 22.4484 142.118 22.673 142.284C23.1231 142.619 23.5779 142.951 24.041 143.285L24.6977 143.755L24.7309 143.779C24.789 141.821 25.0226 139.481 25.4263 136.815C19.2838 132.917 4.98641 123.477 1.48171 118.012Z" fill="#371A45"/>
</g>
<path d="M106.45 169.42C104.851 169.42 103.221 169.39 101.573 169.329C98.9128 169.229 96.1858 169.052 93.4677 168.802C84.3673 167.967 74.9184 166.322 65.3838 163.912C47.5265 159.4 33.4544 151.232 24.7936 145.175C17.5354 140.1 10.9732 134.334 6.31618 128.949C3.77718 126.012 -0.366936 120.648 0.401056 117.728C1.53611 113.412 15.8362 107.343 35.3139 105.188C45.8481 104.018 62.1625 103.573 80.0649 108.098C89.5994 110.507 98.6819 113.545 107.06 117.128C109.562 118.196 112.037 119.333 114.414 120.507C116.939 121.754 119.374 123.056 121.655 124.376C124.174 125.834 126.563 127.347 128.743 128.872C133.81 132.421 137.81 136.037 140.633 139.623C144.746 144.84 146.232 149.775 145.046 154.282C143.861 158.788 140.128 162.402 133.951 165.022C129.712 166.822 124.427 168.092 118.241 168.797C115.576 169.097 112.742 169.292 109.817 169.373C108.716 169.405 107.594 169.42 106.45 169.42ZM49.6528 106.324C44.9356 106.323 40.222 106.581 35.5344 107.099C15.0365 109.365 3.00366 115.536 2.30064 118.208C1.6315 120.753 9.36603 132.025 25.9335 143.61C34.4588 149.573 48.3083 157.611 65.8739 162.05C75.3076 164.434 84.6534 166.062 93.6516 166.887C96.3337 167.134 99.0241 167.309 101.648 167.407C104.428 167.51 107.158 167.525 109.762 167.451C112.632 167.371 115.409 167.18 118.017 166.886C124.01 166.204 129.11 164.983 133.174 163.257C138.765 160.886 142.122 157.701 143.148 153.801C144.175 149.902 142.802 145.525 139.081 140.798C136.374 137.361 132.514 133.876 127.606 130.437C125.469 128.947 123.131 127.462 120.66 126.033C118.417 124.735 116.019 123.454 113.534 122.226C111.189 121.068 108.748 119.946 106.276 118.891C97.9934 115.35 89.0098 112.345 79.5754 109.961C68.6812 107.207 58.3793 106.324 49.6528 106.324V106.324Z" fill="#371A45"/>
<path d="M55.8588 147.963C57.8453 148.467 59.9138 148.582 61.9458 148.301C63.9778 148.021 65.9334 147.35 67.7007 146.328C69.468 145.306 71.0123 143.952 72.2452 142.344C73.4781 140.736 74.3754 138.906 74.8857 136.958C75.0827 136.214 75.2213 135.457 75.3005 134.692C76.0858 127.279 71.2442 120.22 63.6569 118.305C63.1623 118.177 62.6611 118.076 62.1555 118.001C55.7267 117.013 49.4362 120.062 46.2564 125.418C45.5323 126.635 44.9833 127.945 44.6251 129.31C42.4745 137.5 47.5 145.852 55.8588 147.963Z" fill="#EE346A"/>
<g opacity="0.7">
<path opacity="0.7" d="M44.6289 131.469C44.9872 130.104 45.5362 128.795 46.2603 127.577C49.4401 122.221 55.7306 119.175 62.1593 120.16C62.6649 120.235 63.1661 120.337 63.6607 120.464C70.3314 122.148 74.8779 127.809 75.3431 134.19C75.8629 126.963 71.0732 120.177 63.6607 118.305C63.1661 118.178 62.6649 118.076 62.1593 118.001C55.7306 117.013 49.4401 120.062 46.2603 125.418C44.6768 128.081 43.9499 131.151 44.1748 134.226C44.2404 133.296 44.3925 132.373 44.6289 131.469V131.469Z" fill="white"/>
</g>
<g opacity="0.35">
<path opacity="0.35" d="M55.8596 147.963C57.6712 148.618 59.604 148.888 61.5301 148.755C63.4562 148.623 65.3316 148.091 67.0322 147.195C68.7328 146.299 70.2197 145.058 71.3945 143.557C72.5694 142.055 73.4053 140.325 73.8469 138.483C73.8739 138.383 73.8981 138.284 73.9216 138.185C70.222 142.906 63.8762 145.268 57.6251 143.688C49.3728 141.603 44.366 133.43 46.3202 125.338C46.3002 125.365 46.2773 125.391 46.2608 125.418C45.5366 126.635 44.9876 127.945 44.6294 129.31C42.4754 137.5 47.5009 145.852 55.8596 147.963Z" fill="#293856"/>
<path opacity="0.35" d="M59.7765 148.587C58.4433 148.586 57.1155 148.421 55.8245 148.094C47.4084 145.968 42.3256 137.524 44.4947 129.276C44.8569 127.899 45.4107 126.578 46.1406 125.349C46.1572 125.324 46.1738 125.302 46.1904 125.282L46.5844 124.777L46.4538 125.371C44.5279 133.352 49.5534 141.51 57.6619 143.557C60.6033 144.303 63.7037 144.184 66.5762 143.214C69.4488 142.243 71.9663 140.466 73.8146 138.102L74.2066 137.602L74.0586 138.216C74.0344 138.317 74.0102 138.419 73.9833 138.517C73.6208 139.9 73.065 141.226 72.3319 142.459C70.8647 144.362 68.9674 145.906 66.7889 146.969C64.6104 148.032 62.2101 148.586 59.7765 148.587ZM55.8937 147.832C57.6612 148.476 59.547 148.75 61.4291 148.634C63.3113 148.519 65.1477 148.018 66.8196 147.163C68.4915 146.308 69.9617 145.118 71.1348 143.671C72.308 142.223 73.1581 140.551 73.63 138.761C71.7203 141.007 69.199 142.675 66.3598 143.57C63.5205 144.466 60.4802 144.552 57.5928 143.819C49.6274 141.807 44.5832 133.995 46.0093 126.15C45.4736 127.165 45.0563 128.237 44.765 129.344C42.6339 137.449 47.6268 145.741 55.8943 147.832H55.8937Z" fill="#371A45"/>
</g>
<path d="M59.7865 149.417C58.3783 149.416 56.9759 149.24 55.6127 148.894C51.5527 147.858 48.0478 145.345 45.8103 141.866C43.5727 138.388 42.7705 134.205 43.5665 130.167C44.3626 126.129 46.6973 122.54 50.096 120.129C53.4947 117.719 57.7025 116.667 61.8641 117.188C66.0257 117.708 69.8287 119.763 72.5004 122.934C75.172 126.104 76.5117 130.153 76.2471 134.257C75.9825 138.361 74.1336 142.213 71.0761 145.029C68.0185 147.845 63.9819 149.414 59.7865 149.417ZM59.7333 118.776C56.1718 118.784 52.7354 120.064 50.0671 122.376C47.3988 124.688 45.6814 127.874 45.2364 131.337C44.7913 134.801 45.6491 138.305 47.6492 141.193C49.6492 144.082 52.6546 146.157 56.1028 147.03V147.03C57.9688 147.513 59.9138 147.629 61.8259 147.373C63.7379 147.116 65.5794 146.491 67.2443 145.534C68.9092 144.578 70.3647 143.308 71.5272 141.798C72.6896 140.288 73.5361 138.567 74.0179 136.735C74.4997 134.904 74.6073 132.996 74.3345 131.124C74.0617 129.251 73.414 127.45 72.4285 125.823C71.443 124.197 70.1392 122.777 68.5921 121.646C67.045 120.515 65.2851 119.695 63.4135 119.234C62.212 118.93 60.9762 118.776 59.7353 118.776H59.7333Z" fill="#371A45"/>
<path d="M59.7865 149.417C58.3783 149.416 56.9759 149.24 55.6127 148.894C51.5527 147.858 48.0478 145.345 45.8103 141.866C43.5727 138.388 42.7705 134.205 43.5665 130.167C44.3626 126.129 46.6973 122.54 50.096 120.129C53.4947 117.719 57.7025 116.667 61.8641 117.188C66.0257 117.708 69.8287 119.763 72.5004 122.934C75.172 126.104 76.5117 130.153 76.2471 134.257C75.9825 138.361 74.1336 142.213 71.0761 145.029C68.0185 147.845 63.9819 149.414 59.7865 149.417ZM59.7333 118.776C56.1718 118.784 52.7354 120.064 50.0671 122.376C47.3988 124.688 45.6814 127.874 45.2364 131.337C44.7913 134.801 45.6491 138.305 47.6492 141.193C49.6492 144.082 52.6546 146.157 56.1028 147.03V147.03C57.9688 147.513 59.9138 147.629 61.8259 147.373C63.7379 147.116 65.5794 146.491 67.2443 145.534C68.9092 144.578 70.3647 143.308 71.5272 141.798C72.6896 140.288 73.5361 138.567 74.0179 136.735C74.4997 134.904 74.6073 132.996 74.3345 131.124C74.0617 129.251 73.414 127.45 72.4285 125.823C71.443 124.197 70.1392 122.777 68.5921 121.646C67.045 120.515 65.2851 119.695 63.4135 119.234C62.212 118.93 60.9762 118.776 59.7353 118.776H59.7333Z" fill="#371A45"/>
<path d="M51.388 139.2C52.9059 141.21 55.1245 142.604 57.6219 143.115C60.1193 143.627 62.7214 143.221 64.9334 141.974C67.1454 140.728 68.8131 138.729 69.6193 136.356C70.4255 133.983 70.314 131.403 69.3061 129.106C68.2982 126.808 66.4641 124.954 64.1525 123.895C61.841 122.837 59.2132 122.648 56.7688 123.365C54.3244 124.081 52.2339 125.653 50.8948 127.782C49.5557 129.911 49.0613 132.447 49.5057 134.91C49.7864 136.463 50.4307 137.932 51.388 139.2V139.2Z" fill="#22A7F0"/>
<path d="M59.7826 144.303C59.2093 144.302 58.6367 144.26 58.0697 144.176C55.1707 143.745 52.5551 142.229 50.7721 139.947C48.9891 137.665 48.1775 134.795 48.5077 131.939C48.8378 129.083 50.2841 126.464 52.5428 124.631C54.8014 122.798 57.6968 121.894 60.6208 122.109C63.5449 122.324 66.2701 123.642 68.2244 125.785C70.1786 127.927 71.2097 130.729 71.1012 133.601C70.9927 136.474 69.7531 139.193 67.6426 141.188C65.5321 143.184 62.7149 144.3 59.7826 144.303V144.303ZM59.7467 123.895C58.0017 123.895 56.2911 124.371 54.8055 125.268C53.3199 126.165 52.1177 127.449 51.3328 128.977C50.5479 130.505 50.2111 132.216 50.36 133.92C50.5089 135.624 51.1375 137.255 52.176 138.629V138.629C53.133 139.899 54.4061 140.908 55.8739 141.559C57.3416 142.21 58.9551 142.482 60.5603 142.348C62.1656 142.215 63.7091 141.68 65.0438 140.796C66.3784 139.911 67.4596 138.706 68.1843 137.296C68.9089 135.885 69.2529 134.317 69.1833 132.739C69.1138 131.161 68.633 129.627 67.7869 128.284C66.9408 126.94 65.7576 125.831 64.3501 125.062C62.9426 124.294 61.3577 123.892 59.7467 123.895V123.895Z" fill="#371A45"/>
<g opacity="0.42">
<path opacity="0.42" d="M51.7383 135.866C52.9176 136.668 54.0298 137.326 55.1897 137.817C57.4578 138.797 59.9527 139.163 62.4141 138.876C63.6695 138.74 64.9289 138.431 66.2983 138.005C65.473 139.164 64.2245 140.02 62.833 140.527C61.4163 141.031 59.8935 141.18 58.4031 140.961C56.9126 140.741 55.5017 140.16 54.2987 139.27C53.1215 138.386 52.1835 137.209 51.7383 135.866Z" fill="#371A45"/>
</g>
<path d="M24.1358 144.396V143.844C24.1264 130.286 27.646 116.95 34.3616 105.097L36.5045 106.265C29.9922 117.76 26.5792 130.693 26.5884 143.841V144.393L24.1358 144.396Z" fill="#371A45"/>
<path d="M95.7006 168.043L93.2598 167.808L94.3962 156.472C95.4257 146.186 98.0924 136.121 102.299 126.644L106.338 117.539L108.587 118.498L104.548 127.602C100.443 136.851 97.8412 146.673 96.837 156.711L95.7006 168.043Z" fill="#371A45"/>
<path d="M124.893 90.8533C124.893 90.8533 129.598 89.6885 130.591 88.3002C131.584 86.9118 135.637 84.9035 134.808 75.9087C133.978 66.9139 133.776 56.4623 133.776 56.4623L120.526 54.565L120.432 86.6557L124.893 90.8533Z" fill="white"/>
<path d="M124.853 91.0031L120.296 86.7187L120.391 54.4146L133.915 56.3478V56.4623C133.915 56.5673 134.128 67.0094 134.946 75.8965C135.637 83.4318 132.892 86.1476 131.416 87.607C131.12 87.8998 130.863 88.1491 130.703 88.3781C129.692 89.7909 125.12 90.9373 124.925 90.9848L124.853 91.0031ZM120.572 86.6042L124.934 90.7036C125.534 90.5484 129.593 89.4609 130.478 88.2223C130.653 87.9777 130.916 87.7175 131.222 87.416C132.666 85.9883 135.354 83.3309 134.673 75.9209C133.901 67.5278 133.669 57.7503 133.643 56.5829L120.666 54.7284L120.572 86.6042Z" fill="#371A45"/>
<path d="M133.949 61.935C133.773 59.9863 133.626 58.1115 133.506 56.425L133.779 56.4636C133.779 56.4636 133.822 58.6772 133.949 61.935Z" fill="white"/>
<path d="M133.812 61.9493C133.652 60.1768 133.503 58.3222 133.368 56.4372L133.356 56.2699L133.915 56.3485V56.4637C133.915 56.486 133.959 58.7105 134.085 61.9324L133.812 61.9493Z" fill="#371A45"/>
<g opacity="0.35">
<path opacity="0.35" d="M130.59 88.3002C129.599 89.6879 124.893 90.8533 124.893 90.8533L120.433 86.6625L120.449 81.1301L122.75 83.1384C122.75 83.1384 125.88 83.3458 129.749 81.2832C131.022 80.6057 133.815 79.1726 134.686 74.4905C134.724 74.9648 134.767 75.4391 134.81 75.9134C135.636 84.9049 131.585 86.9125 130.59 88.3002Z" fill="#371A45"/>
</g>
<path d="M134.687 74.4905C134.314 70.0429 134.083 65.3967 133.949 61.9377C134.164 64.3018 134.422 66.7776 134.728 69.16C135.005 71.3269 134.952 73.0716 134.687 74.4905Z" fill="white"/>
<path d="M134.636 75.5238L134.55 74.5013C134.164 69.9169 133.936 65.1413 133.812 61.9425L134.088 61.9255C134.324 64.5349 134.586 66.9633 134.866 69.1431C135.125 71.169 135.111 72.9761 134.824 74.5149L134.636 75.5238ZM134.316 66.9017C134.421 68.8815 134.555 71.0349 134.721 73.1848C134.821 71.9781 134.778 70.6358 134.591 69.177C134.497 68.4456 134.406 67.6872 134.316 66.9017Z" fill="#371A45"/>
<path d="M150.298 56.2082C144.146 57.9922 125.357 60.9742 125.357 60.9742L125.241 59.8657L124.669 60.2045C124.833 62.4073 125.196 67.6992 125.42 74.1145C125.42 74.2202 125.426 74.3286 125.431 74.437C125.478 75.805 125.518 77.2225 125.547 78.6732C125.686 85.3019 125.617 92.5635 125.03 98.6617C124.876 100.274 124.722 101.861 124.562 103.41C123.259 116.054 121.477 126.085 114.169 124.809C103.091 122.88 107.422 103.968 104.116 99.0228C101.433 95.0136 89.9039 91.8744 87.4665 91.7247C86.2693 91.6495 80.5629 91.5851 73.9482 102.146C67.0598 113.144 56.4254 108.903 57.4823 97.0884C58.2572 88.4486 63.2101 82.0218 67.5858 78.3236C68.5054 77.5388 69.4825 76.8211 70.5092 76.1763C72.4371 74.9776 74.1137 73.4289 75.4489 71.6135C77.3417 69.0472 78.48 66.0211 78.74 62.8647C79.3269 55.6885 79.4313 54.6572 79.4313 54.6572L79.629 54.6762L77.5607 41.4838L78.0149 41.5278L123.763 45.9998L123.596 44.4217C123.596 44.4217 124.909 44.2381 127.003 44.0254C134.262 43.2909 150.906 42.2305 154.878 47.4031C155.592 48.3341 155.925 49.2393 155.973 50.091C156.154 53.1056 152.774 55.4906 150.298 56.2082Z" fill="white"/>
<g opacity="0.35">
<path opacity="0.35" d="M150.299 56.2082C144.146 57.9922 125.358 60.9742 125.358 60.9742L125.241 59.8657L124.669 60.2045C124.833 62.4073 125.197 67.6992 125.42 74.1145C125.42 74.2202 125.427 74.3286 125.432 74.437L123.647 74.7839C123.647 74.7839 120.897 68.5428 122.087 61.9527C123.342 55.0048 138.647 54.4099 146.465 53.3414C153.004 52.4476 154.643 49.8288 155.507 48.8206C156.502 52.9307 152.774 55.4906 150.299 56.2082Z" fill="#371A45"/>
</g>
<g opacity="0.35">
<path opacity="0.35" d="M126.489 49.0889C123.591 58.6732 110.468 63.3146 97.1792 59.4558C86.8068 56.4433 79.3945 49.1404 78.0195 41.5231L123.767 45.9951L123.601 44.417C123.601 44.417 124.914 44.2334 127.008 44.0206C127.161 45.727 126.985 47.4463 126.489 49.0889V49.0889Z" fill="#293856"/>
</g>
<g opacity="0.35">
<path opacity="0.35" d="M114.169 124.803C103.091 122.874 107.422 103.962 104.116 99.0167C101.433 95.0075 89.9039 91.8683 87.4665 91.7186C86.2693 91.6433 80.5629 91.579 73.9482 102.14C67.0598 113.137 56.4254 108.896 57.4823 97.0822C58.2572 88.4425 61.3652 85.2558 62.9924 82.8999C63.0615 82.9589 59.3031 89.801 65.4878 93.4952C72.5339 97.7022 81.3544 90.5714 84.9026 87.3292C86.0366 86.2842 87.3825 85.4849 88.8525 84.9834C89.4836 84.7693 89.4256 83.8756 88.7702 83.7414L83.7828 82.7142C82.0546 82.3585 80.9092 80.8347 81.2334 79.3264L83.9874 66.468C84.3116 64.9591 85.9858 64.0159 87.7105 64.3675L111.099 69.1783C112.824 69.5334 113.971 71.0572 113.649 72.5662L113.24 74.477C116.175 75.0461 120.588 75.4933 124.427 74.2181C124.746 74.1112 125.085 74.0739 125.42 74.109C125.47 75.578 125.516 77.1039 125.547 78.6678C123.021 79.5608 118.289 80.6544 112.179 79.4253L110.889 85.4293C110.567 86.9383 108.89 87.8814 107.166 87.5298L102.015 86.4633C101.342 86.3278 100.922 87.1693 101.457 87.5928C103.198 88.9778 104.619 90.7101 105.625 92.6746C109.236 99.7255 106.589 104.842 113.184 108.758C119.079 112.258 123.109 109.482 124.562 103.405C123.263 116.048 121.477 126.078 114.169 124.803Z" fill="#371A45"/>
</g>
<path d="M124.973 61.8802C124.704 61.8793 124.444 61.7788 124.247 61.5989C124.05 61.4189 123.93 61.1728 123.909 60.9095C123.889 60.6462 123.971 60.3851 124.139 60.1785C124.307 59.9718 124.548 59.8347 124.814 59.7946C125.005 59.7662 143.98 56.9488 149.992 55.2027C151.838 54.6674 154.134 53.109 154.751 51.2727C155.115 50.194 154.877 49.1302 154.025 48.0204C150.14 42.9616 130.853 44.4468 123.748 45.4456C123.467 45.4851 123.182 45.4137 122.955 45.2471C122.728 45.0804 122.578 44.8322 122.537 44.5569C122.497 44.2817 122.57 44.0021 122.74 43.7795C122.91 43.5569 123.163 43.4097 123.444 43.3702C123.509 43.3607 130.137 42.4385 137.304 42.3538C147.189 42.2332 153.393 43.7157 155.733 46.7581C157.335 48.845 157.184 50.7219 156.781 51.9293C155.886 54.584 152.948 56.5267 150.597 57.209C144.445 58.9937 125.919 61.7487 125.132 61.8632C125.079 61.8728 125.026 61.8784 124.973 61.8802V61.8802Z" fill="#371A45"/>
<path d="M139.126 43.3999C139.126 43.3999 140.058 54.5616 141.429 58.1765Z" fill="white"/>
<path d="M141.43 59.2247C141.212 59.2247 140.999 59.1593 140.819 59.0372C140.64 58.9151 140.504 58.7422 140.427 58.5417C139.021 54.834 138.099 43.9474 138.061 43.486C138.043 43.212 138.136 42.9424 138.32 42.7349C138.503 42.5274 138.762 42.3986 139.041 42.3762C139.32 42.3538 139.597 42.4395 139.813 42.6149C140.028 42.7903 140.165 43.0415 140.193 43.3146C140.202 43.425 141.128 54.3733 142.433 57.8106C142.493 57.9692 142.513 58.1398 142.492 58.3077C142.47 58.4756 142.407 58.6359 142.309 58.7749C142.21 58.9138 142.079 59.0273 141.926 59.1057C141.773 59.184 141.602 59.2249 141.43 59.2247V59.2247Z" fill="#371A45"/>
<path d="M82.1112 44.3716C84.8558 48.0201 88.5121 50.9149 92.7283 52.7776C93.6148 53.169 94.5218 53.5139 95.4457 53.8109C95.8991 53.9579 96.3623 54.0921 96.8282 54.2174C100.794 55.2732 104.954 55.4292 108.99 54.6734C109.501 54.5759 110.008 54.4654 110.511 54.3421C119.711 52.0648 127.419 45.1169 130.07 35.4994C133.977 21.334 125.429 6.74649 110.978 2.91818C108.269 2.19772 105.462 1.89506 102.658 2.02107C102.339 2.03259 102.018 2.0536 101.699 2.0807C100.843 2.14846 99.9962 2.25551 99.1584 2.40187C95.3106 3.07979 91.6565 4.56079 88.4439 6.74445C87.9369 7.08911 87.4418 7.45048 86.9583 7.82857C82.4663 11.354 79.2362 16.19 77.7362 21.6355C75.4889 29.7841 77.3622 38.0708 82.1112 44.3716Z" fill="white"/>
<path d="M125.738 91.4028C125.466 91.4034 125.205 91.3028 125.006 91.1215C124.808 90.9401 124.687 90.6916 124.669 90.4262C124.65 90.1608 124.735 89.8985 124.906 89.6923C125.078 89.4861 125.323 89.3516 125.592 89.3159C130.569 88.6383 134.216 83.8316 133.887 78.371L132.767 59.7553C132.75 59.4777 132.847 59.205 133.035 58.9971C133.224 58.7892 133.488 58.6632 133.772 58.6467C134.055 58.6303 134.333 58.7248 134.545 58.9094C134.757 59.0941 134.886 59.3537 134.902 59.6313L136.023 78.2477C136.417 84.7924 131.964 90.5667 125.886 91.3926C125.837 91.3993 125.787 91.4027 125.738 91.4028V91.4028Z" fill="#371A45"/>
<g opacity="0.35">
<path opacity="0.35" d="M82.112 44.3703C85.4475 48.7994 90.1088 52.0989 95.4471 53.8096C95.9006 53.9566 96.363 54.0908 96.8296 54.2162C98.2216 54.5853 99.6413 54.8452 101.075 54.9933C103.716 55.2688 106.384 55.1606 108.992 54.6722C109.503 54.5746 110.01 54.4642 110.513 54.3408C119.713 52.0635 127.421 45.115 130.072 35.4974C131.443 30.557 131.321 25.3326 129.721 20.4586C129.67 22.602 129.355 24.7315 128.783 26.8008C127.789 30.4075 125.364 32.1197 123.135 34.87C119.421 39.4538 114.975 44.2206 109.225 45.6435C108.722 45.7668 108.215 45.8772 107.704 45.9748C105.095 46.4642 102.428 46.5724 99.7868 46.296C98.353 46.1479 96.9335 45.888 95.5418 45.5188C95.0724 45.3921 94.61 45.2572 94.1593 45.1122C93.2352 44.8157 92.3279 44.471 91.4412 44.0796C87.225 42.2167 83.5687 39.3216 80.8241 35.6729C79.065 33.337 77.7057 30.7359 76.7996 27.9716C76.6666 33.864 78.5353 39.6326 82.112 44.3703V44.3703Z" fill="#293856"/>
<path opacity="0.35" d="M103.932 55.2799C102.973 55.2802 102.015 55.2302 101.061 55.1301C99.6196 54.9809 98.1927 54.7197 96.7937 54.3489C96.2759 54.2086 95.821 54.0779 95.4014 53.9383C94.4729 53.64 93.5612 53.2935 92.6703 52.9002C88.4353 51.0248 84.7614 48.1167 81.9993 44.4536V44.4536C78.4158 39.6984 76.5189 33.8455 76.6586 27.9715L76.6779 27.1673L76.9288 27.9336C78.224 31.9137 80.4651 35.5352 83.4677 38.5001C86.4703 41.4649 90.1485 43.6882 94.1993 44.9868C94.6141 45.1223 95.0662 45.2579 95.5819 45.3934C96.9664 45.7602 98.3785 46.0187 99.8048 46.1665C102.432 46.4416 105.086 46.3338 107.681 45.8467C108.186 45.7505 108.695 45.6434 109.195 45.5174C114.849 44.1175 119.186 39.5344 123.03 34.7907C123.627 34.0541 124.237 33.3915 124.827 32.7505C126.424 31.0193 127.932 29.3843 128.652 26.7702C129.22 24.7112 129.534 22.5925 129.585 20.4599L129.604 19.657L129.855 20.422C130.99 23.899 131.386 27.5671 131.019 31.1999C130.652 34.8327 129.529 38.3532 127.72 41.5443C125.911 44.7353 123.454 47.5291 120.501 49.7534C117.547 51.9777 114.161 53.5853 110.549 54.477C110.045 54.6003 109.531 54.7127 109.021 54.8096C107.6 55.076 106.159 55.2303 104.713 55.2711C104.452 55.2769 104.191 55.2799 103.932 55.2799ZM76.9288 28.7785C76.9862 34.3656 78.838 39.7928 82.2212 44.2896V44.2896C85.5397 48.6959 90.177 51.9786 95.4879 53.6808C95.9026 53.8163 96.354 53.9518 96.8704 54.0874C98.2549 54.4542 99.667 54.7127 101.093 54.8605C103.72 55.1356 106.375 55.0278 108.97 54.5406C109.475 54.4444 109.984 54.3374 110.483 54.2113C113.991 53.3446 117.285 51.7954 120.17 49.656C123.055 47.5165 125.471 44.8304 127.276 41.7573C129.08 38.6842 130.236 35.2869 130.675 31.7672C131.113 28.2476 130.825 24.6774 129.828 21.269C129.724 23.1517 129.419 25.0185 128.917 26.8386C128.179 29.5151 126.65 31.1751 125.03 32.9294C124.442 33.567 123.834 34.2269 123.243 34.956C119.372 39.7376 114.994 44.3574 109.258 45.7776C108.754 45.9016 108.24 46.0134 107.73 46.1102C103.672 46.8665 99.4922 46.7099 95.5051 45.6522C94.9881 45.5119 94.5325 45.3812 94.1129 45.2416C93.1844 44.9433 92.2727 44.5968 91.3818 44.2036C88.0368 42.7195 85.0323 40.5881 82.5486 37.9374C80.065 35.2867 78.1535 32.1714 76.9288 28.7785V28.7785Z" fill="#371A45"/>
</g>
<path d="M103.933 56.1933C102.94 56.1938 101.948 56.1422 100.96 56.0388C99.4709 55.8842 97.9963 55.6141 96.5503 55.2311C96.018 55.0875 95.5479 54.9486 95.1083 54.8063C94.1496 54.4976 93.2081 54.1396 92.2879 53.7337C87.9064 51.7932 84.1058 48.7837 81.2492 44.9929V44.9929C76.1013 38.1603 74.4444 29.5442 76.7027 21.3598C78.261 15.6992 81.6186 10.6725 86.2885 7.00871C86.782 6.62114 87.3018 6.24169 87.8334 5.87987C91.1724 3.61066 94.97 2.07166 98.969 1.36721C99.8372 1.21543 100.726 1.10296 101.611 1.03317C101.957 1.00335 102.297 0.982349 102.617 0.970153C105.529 0.839909 108.444 1.15468 111.258 1.90318C126.258 5.87851 135.16 21.0725 131.106 35.7725C129.795 40.5122 127.221 44.8247 123.648 48.2674C120.076 51.71 115.633 54.1589 110.776 55.3626C110.252 55.4906 109.722 55.6058 109.197 55.7061C107.726 55.9824 106.235 56.1424 104.738 56.1845C104.469 56.1908 104.201 56.1937 103.933 56.1933ZM82.9711 43.7482C85.6097 47.2495 89.1202 50.0292 93.1672 51.8215C94.019 52.1973 94.8906 52.5286 95.7781 52.8142C96.1866 52.9463 96.6228 53.0751 97.115 53.2079C98.4504 53.5617 99.8123 53.8109 101.188 53.9532C103.724 54.2187 106.287 54.1148 108.792 53.6449C109.276 53.5527 109.771 53.4416 110.255 53.3264C114.742 52.2142 118.847 49.9517 122.148 46.771C125.45 43.5904 127.828 39.6061 129.04 35.227C132.786 21.6423 124.559 7.60226 110.699 3.92913C108.097 3.2374 105.402 2.94641 102.709 3.06657C102.414 3.07809 102.109 3.09706 101.792 3.12416C100.967 3.19192 100.147 3.29288 99.3464 3.43314C95.6505 4.08423 92.1406 5.50677 89.0549 7.6043C88.562 7.93902 88.0823 8.28933 87.6281 8.64641C83.3122 12.0318 80.2092 16.6773 78.7696 21.9086C76.6827 29.4737 78.2166 37.4339 82.9711 43.7482V43.7482Z" fill="#371A45"/>
<path d="M103.933 56.1933C102.94 56.1938 101.948 56.1422 100.96 56.0388C99.4709 55.8842 97.9963 55.6141 96.5503 55.2311C96.018 55.0875 95.5479 54.9486 95.1083 54.8063C94.1496 54.4976 93.2081 54.1396 92.2879 53.7337C87.9064 51.7932 84.1058 48.7837 81.2492 44.9929V44.9929C76.1013 38.1603 74.4444 29.5442 76.7027 21.3598C78.261 15.6992 81.6186 10.6725 86.2885 7.00871C86.782 6.62114 87.3018 6.24169 87.8334 5.87987C91.1724 3.61066 94.97 2.07166 98.969 1.36721C99.8372 1.21543 100.726 1.10296 101.611 1.03317C101.957 1.00335 102.297 0.982349 102.617 0.970153C105.529 0.839909 108.444 1.15468 111.258 1.90318C126.258 5.87851 135.16 21.0725 131.106 35.7725C129.795 40.5122 127.221 44.8247 123.648 48.2674C120.076 51.71 115.633 54.1589 110.776 55.3626C110.252 55.4906 109.722 55.6058 109.197 55.7061C107.726 55.9824 106.235 56.1424 104.738 56.1845C104.469 56.1908 104.201 56.1937 103.933 56.1933ZM82.9711 43.7482C85.6097 47.2495 89.1202 50.0292 93.1672 51.8215C94.019 52.1973 94.8906 52.5286 95.7781 52.8142C96.1866 52.9463 96.6228 53.0751 97.115 53.2079C98.4504 53.5617 99.8123 53.8109 101.188 53.9532C103.724 54.2187 106.287 54.1148 108.792 53.6449C109.276 53.5527 109.771 53.4416 110.255 53.3264C114.742 52.2142 118.847 49.9517 122.148 46.771C125.45 43.5904 127.828 39.6061 129.04 35.227C132.786 21.6423 124.559 7.60226 110.699 3.92913C108.097 3.2374 105.402 2.94641 102.709 3.06657C102.414 3.07809 102.109 3.09706 101.792 3.12416C100.967 3.19192 100.147 3.29288 99.3464 3.43314C95.6505 4.08423 92.1406 5.50677 89.0549 7.6043C88.562 7.93902 88.0823 8.28933 87.6281 8.64641C83.3122 12.0318 80.2092 16.6773 78.7696 21.9086C76.6827 29.4737 78.2166 37.4339 82.9711 43.7482V43.7482Z" fill="#371A45"/>
<path d="M86.9198 49.2847C104.192 57.8899 124.482 47.2594 122.944 28.5116C121.897 15.7562 108.348 6.91248 95.9159 8.68231C86.8666 9.96971 78.6067 15.1091 76.8066 29.4222C76.8066 29.4222 77.0085 35.8795 79.374 39.8704C81.7395 43.8614 84.7285 47.3522 84.7285 47.3522L86.9198 49.2847Z" fill="#293856"/>
<path d="M99.5927 52.4435C95.3103 52.4435 90.9339 51.436 86.8583 49.4053L86.8285 49.3856L84.6345 47.4532C84.5909 47.4044 81.5978 43.8946 79.253 39.9389C76.8972 35.9635 76.6691 29.4913 76.667 29.427C78.2078 17.1628 84.6766 10.1452 95.8951 8.54882C102.351 7.6307 109.4 9.57806 114.751 13.7614C119.659 17.5972 122.617 22.8314 123.082 28.5007C123.756 36.6994 120.266 43.9494 113.508 48.3923C109.409 51.085 104.564 52.4435 99.5927 52.4435ZM86.9993 49.1715C95.7147 53.508 105.811 53.1225 113.354 48.1674C120.026 43.7841 123.472 36.6235 122.807 28.5224C122.348 22.9283 119.426 17.7618 114.581 13.9735C109.287 9.83621 102.316 7.90783 95.9359 8.81714C84.8564 10.3939 78.4663 17.3322 76.9442 29.4392C76.9442 29.4825 77.173 35.8876 79.4936 39.8027C81.8259 43.7374 84.8045 47.2303 84.8342 47.2648L86.9993 49.1715Z" fill="#371A45"/>
<g opacity="0.35">
<path opacity="0.35" d="M77.8818 31.5437C77.9186 31.9238 77.9754 32.3017 78.0519 32.676C78.9754 37.2015 80.6531 41.454 80.6531 41.454L82.093 43.9766C95.5996 57.5897 118.306 53.9579 123.032 35.7291C123.332 34.5723 123.522 33.3908 123.601 32.1996C113.814 45.8867 92.3811 46.8115 78.7618 33.0866L77.8818 31.5437Z" fill="#111A28"/>
</g>
<path d="M101.055 55.8118L100.99 55.805C99.5116 55.652 98.0485 55.3839 96.6139 55.0034C96.0871 54.8611 95.6212 54.7243 95.185 54.5827C94.2341 54.2767 93.3002 53.9216 92.3875 53.5189C88.0426 51.5958 84.2736 48.6124 81.4407 44.854V44.854C76.3371 38.0783 74.694 29.5408 76.933 21.4228C78.2222 16.7357 80.7618 12.4698 84.2907 9.06379L84.3523 9.00417L84.4214 8.95877C87.4533 7.05546 91.1066 5.78975 95.2804 5.19551C102.716 4.13714 110.834 6.37856 116.992 11.1927C122.656 15.6187 126.071 21.6674 126.608 28.2229C127.192 35.3442 125.111 41.786 120.594 46.8508C115.87 52.1434 108.773 55.4086 101.117 55.8084L101.055 55.8118ZM82.7783 43.8864C85.4415 47.4201 88.9846 50.2253 93.0691 52.0343C93.9286 52.4134 94.808 52.7477 95.7035 53.0358C96.1182 53.1713 96.5551 53.2987 97.0515 53.4328C98.3783 53.7839 99.7311 54.0331 101.097 54.1781C108.282 53.7865 114.932 50.7266 119.347 45.7762C123.563 41.0494 125.506 35.0231 124.958 28.3496C124.458 22.246 121.263 16.6032 115.962 12.4598C110.156 7.92005 102.515 5.80465 95.5224 6.80069C91.6181 7.3563 88.2102 8.52648 85.3926 10.2787C82.1061 13.4742 79.7409 17.4654 78.5374 21.8469C76.4311 29.4819 77.9768 37.5159 82.7783 43.8885V43.8864Z" fill="#371A45"/>
<path d="M99.5909 53.3562C95.1669 53.3562 90.6439 52.3162 86.4348 50.2197L86.3097 50.1567L83.9062 48.0264C83.7818 47.8807 80.8315 44.4204 78.4452 40.3976C75.9719 36.2251 75.7424 29.7292 75.7334 29.4548V29.3741L75.7431 29.2942C77.3406 16.5923 84.0755 9.30568 95.7606 7.64494C102.466 6.68956 109.782 8.71009 115.332 13.0479C120.442 17.0456 123.525 22.5042 124.01 28.4289C124.711 36.9664 121.073 44.5234 114.026 49.1519C109.77 51.9455 104.744 53.3562 99.5909 53.3562ZM87.5291 48.4099C95.9183 52.5377 105.603 52.1576 112.834 47.4071C119.219 43.2136 122.512 36.3565 121.877 28.5942C121.439 23.2549 118.641 18.3154 113.997 14.6863C108.901 10.7028 102.199 8.84696 96.0669 9.719C85.3302 11.2476 79.3791 17.7069 77.8756 29.4649C77.9088 30.1892 78.2296 35.8572 80.295 39.3426C82.4262 42.9378 85.1131 46.1658 85.4975 46.6225L87.5291 48.4099Z" fill="#371A45"/>
<path d="M134.996 31.9058C135.319 26.6674 132.433 22.2343 128.55 22.0041C124.667 21.774 121.257 25.834 120.934 31.0724C120.611 36.3109 123.497 40.744 127.38 40.9741C131.263 41.2043 134.673 37.1443 134.996 31.9058Z" fill="white"/>
<path d="M127.686 42.0333C125.974 42.0333 124.363 41.3557 123.011 40.0738C120.972 38.1359 119.819 35.1017 119.846 31.7497C119.893 25.9646 123.554 21.1213 128.003 20.9526C129.805 20.8848 131.51 21.5624 132.927 22.9074C134.965 24.8459 136.119 27.8794 136.092 31.2321C136.045 37.0165 132.384 41.8598 127.931 42.0286C127.848 42.0319 127.765 42.0333 127.686 42.0333ZM128.245 23.0422C128.192 23.0422 128.139 23.0422 128.086 23.0456C124.758 23.1716 122.02 27.0826 121.982 31.7633C121.959 34.5041 122.899 37.0484 124.497 38.5655C125.484 39.5039 126.64 39.9748 127.848 39.9301C131.176 39.8041 133.914 35.8931 133.953 31.2124C133.975 28.4716 133.035 25.9273 131.437 24.4102C130.494 23.5165 129.393 23.0422 128.245 23.0422Z" fill="#371A45"/>
<path d="M135.92 32.9694C136.329 28.7433 134.103 25.0795 130.947 24.786C127.792 24.4925 124.902 27.6805 124.493 31.9066C124.084 36.1328 126.31 39.7966 129.466 40.0901C132.622 40.3836 135.511 37.1956 135.92 32.9694Z" fill="white"/>
<g opacity="0.35">
<path opacity="0.35" d="M124.684 35.1538C124.339 33.7655 124.384 32.2796 124.738 30.8851C125.794 33.9857 128.653 35.2704 131.369 33.7499C133.125 32.7681 134.416 30.8363 134.964 28.6843C135.033 28.8795 135.091 29.0848 135.143 29.2942C136.018 32.8304 134.383 37.0084 131.498 38.6251C128.613 40.2417 125.559 38.6881 124.684 35.1538Z" fill="#371A45"/>
</g>
<path d="M129.995 40.6592C128.772 40.6592 127.612 40.172 126.631 39.2417C125.016 37.7137 124.073 35.1329 124.106 32.3385C124.164 27.5698 126.893 23.7123 130.318 23.5558C131.619 23.4982 132.856 23.9847 133.895 24.9679C135.509 26.4965 136.452 29.0774 136.418 31.871C136.36 36.6391 133.632 40.4972 130.207 40.6538C130.136 40.6592 130.066 40.6592 129.995 40.6592ZM130.525 25.1772C130.483 25.1772 130.439 25.1772 130.395 25.1772C127.931 25.2897 125.811 28.5766 125.763 32.3555C125.735 34.7101 126.489 36.8465 127.781 38.0695C128.27 38.5329 129.078 39.0736 130.128 39.0269C132.592 38.9144 134.712 35.6275 134.759 31.8493C134.788 29.4948 134.034 27.3584 132.742 26.1353C132.273 25.6929 131.514 25.1766 130.525 25.1766V25.1772Z" fill="#371A45"/>
<g opacity="0.7">
<path opacity="0.7" d="M117.884 27.1116C118.153 24.9323 116.824 22.9824 114.916 22.7564C113.008 22.5305 111.243 24.1139 110.975 26.2932C110.706 28.4725 112.035 30.4224 113.943 30.6484C115.851 30.8743 117.615 29.2909 117.884 27.1116Z" fill="white"/>
</g>
<g opacity="0.7">
<path opacity="0.7" d="M115.621 35.377C115.809 34.4896 115.331 33.6419 114.554 33.4836C113.777 33.3253 112.995 33.9163 112.806 34.8037C112.618 35.6911 113.096 36.5388 113.873 36.6971C114.65 36.8554 115.432 36.2643 115.621 35.377Z" fill="white"/>
</g>
<g opacity="0.7">
<path opacity="0.7" d="M80.5676 32.2098C80.5676 32.2098 78.4392 18.2598 85.9076 13.7268C93.376 9.19386 102.606 10.8499 102.316 11.4671C102.316 11.4671 90.8813 13.2214 85.7632 21.5549C81.8168 27.9803 80.5676 32.2098 80.5676 32.2098Z" fill="white"/>
</g>
<path d="M101.399 36.0211C100.154 39.5662 95.2327 42.2298 92.2824 42.4351C88.6076 42.6878 81.4627 43.3159 79.691 44.1005C79.5639 44.149 79.448 44.222 79.3502 44.3153L79.4367 54.6511C66.3842 49.1282 64.6754 42.4886 65.619 37.6493C66.7133 32.0336 71.0973 28.7731 74.6054 27.5535C78.2636 26.2796 95.8189 22.0536 101.067 31.9381C101.821 33.3664 101.845 34.75 101.399 36.0211Z" fill="white"/>
<g opacity="0.35">
<path opacity="0.35" d="M101.398 36.0212C100.154 39.5663 95.2321 42.2298 92.2817 42.4351C88.607 42.6878 80.4411 44.4001 78.6701 45.1834C75.4613 42.1512 78.9577 38.4327 83.5387 38.6109C88.578 38.8026 97.4406 39.8217 101.398 36.0212Z" fill="#293856"/>
<path opacity="0.35" d="M78.6426 45.3446L78.5735 45.2809C77.3458 44.1202 76.9836 42.7664 77.5442 41.4695C78.3446 39.6306 80.8691 38.3764 83.5436 38.4733C84.1485 38.4963 84.8086 38.5315 85.5089 38.5688C90.7224 38.8466 97.8617 39.2267 101.301 35.9263L101.719 35.5245L101.528 36.0665C100.24 39.7342 95.1962 42.368 92.2909 42.5712C88.5961 42.8253 80.4703 44.5362 78.7269 45.308L78.6426 45.3446ZM83.2374 38.7382C80.7841 38.7382 78.5278 39.9036 77.7999 41.5759C77.2939 42.7393 77.614 43.9603 78.6986 45.0227C80.623 44.2266 88.6127 42.5516 92.2701 42.2995C94.9578 42.1125 99.5215 39.7925 101.049 36.5097C97.3855 39.4734 90.5461 39.1088 85.4958 38.8398C84.7976 38.8026 84.1388 38.7673 83.5353 38.7443C83.4351 38.7402 83.3356 38.7382 83.2388 38.7382H83.2374Z" fill="#371A45"/>
</g>
<path d="M79.4364 55.7013C79.2906 55.7016 79.1463 55.6723 79.0126 55.6153C65.2814 49.8051 63.5781 42.532 64.5652 37.4563C65.7231 31.5099 70.3241 27.9343 74.2429 26.5703C79.7557 24.6528 96.6903 21.4343 102.013 31.4584C103.063 33.4355 103.01 35.5448 101.862 37.5565C99.9876 40.838 95.4329 43.2705 92.3567 43.4833C85.263 43.9739 80.8417 44.6528 80.0861 45.0776C79.8857 45.2624 79.6204 45.3643 79.3453 45.3624C79.0702 45.3604 78.8065 45.2547 78.6088 45.0671C78.4112 44.8796 78.2948 44.6246 78.2839 44.3552C78.2729 44.0857 78.3683 43.8225 78.5502 43.6202C78.8903 43.2455 79.7944 42.2488 92.2067 41.3916C94.3863 41.2405 98.4032 39.3196 99.9945 36.532C100.786 35.1471 100.824 33.7655 100.115 32.4266C95.4149 23.5741 79.0769 27.1137 74.9584 28.5461C71.5981 29.7156 67.6545 32.7735 66.6632 37.8486C65.4383 44.1385 69.8769 49.469 79.8553 53.6917C80.0802 53.7874 80.2648 53.956 80.378 54.1693C80.4912 54.3825 80.5262 54.6274 80.4771 54.863C80.428 55.0985 80.2978 55.3104 80.1083 55.463C79.9189 55.6156 79.6816 55.6998 79.4364 55.7013V55.7013Z" fill="#371A45"/>
<path d="M115.377 125.961C114.909 125.96 114.442 125.918 113.982 125.836C105.87 124.422 105.211 115.218 104.681 107.823C104.432 104.342 104.197 101.054 103.219 99.592C100.896 96.1187 90.7628 93.0195 88.1899 92.8637C86.5696 92.7647 80.8169 93.1774 74.8589 102.689C70.8241 109.129 65.8318 110.273 62.5054 109.193C58.2666 107.82 55.8769 103.027 56.4175 96.9867C57.3465 86.5941 64.2799 78.7979 69.9344 75.2799C74.364 72.5235 77.2569 67.8476 77.6765 62.7712C78.2579 55.6722 78.6443 51.5681 78.6443 51.5275C78.6768 51.2556 78.8164 51.007 79.0333 50.8346C79.2502 50.6623 79.5272 50.5799 79.8053 50.605C80.0833 50.6301 80.3404 50.7608 80.5215 50.9691C80.7026 51.1774 80.7935 51.4468 80.7748 51.7199C80.7748 51.7599 80.3884 55.8531 79.807 62.9392C79.3376 68.6681 76.0742 73.9437 71.0826 77.0504C65.8394 80.3129 59.4113 87.5393 58.55 97.1696C58.0993 102.208 59.9159 106.146 63.1815 107.202C66.4304 108.255 70.2116 106.104 73.0402 101.588C79.4434 91.3676 85.8652 90.6114 88.3289 90.7672C90.9087 90.9258 102.066 94.0318 105.013 98.4387C106.297 100.358 106.539 103.748 106.82 107.673C107.323 114.688 107.892 122.64 114.361 123.768C115.769 124.013 116.934 123.772 117.926 123.033C121.906 120.064 122.909 109.617 123.971 98.5539C125.465 82.9954 123.929 61.1206 123.913 60.9017C123.903 60.7644 123.921 60.6265 123.965 60.4959C124.01 60.3653 124.08 60.2446 124.172 60.1407C124.265 60.0367 124.377 59.9516 124.502 59.8901C124.628 59.8286 124.765 59.792 124.905 59.7824C125.045 59.7727 125.186 59.7902 125.319 59.8339C125.452 59.8775 125.575 59.9464 125.681 60.0367C125.787 60.127 125.874 60.2369 125.937 60.3601C126 60.4833 126.037 60.6173 126.047 60.7547C126.063 60.9756 127.611 83.0185 126.101 98.7504C124.946 110.784 123.948 121.178 119.221 124.702C118.12 125.532 116.766 125.976 115.377 125.961V125.961Z" fill="#371A45"/>
<path d="M85.8077 44.0572C85.6461 44.0575 85.4866 44.0218 85.3411 43.9529C85.1956 43.884 85.068 43.7837 84.9678 43.6595C79.4273 36.7956 82.6099 26.0872 82.7475 25.636C82.8313 25.3724 83.0177 25.1519 83.2664 25.0222C83.515 24.8925 83.8058 24.8641 84.0756 24.9432C84.3455 25.0223 84.5726 25.2025 84.7078 25.4447C84.843 25.6869 84.8753 25.9716 84.7977 26.237C84.759 26.3637 81.8073 36.366 86.6462 42.3592C86.7708 42.5137 86.8485 42.6995 86.8704 42.8953C86.8923 43.0912 86.8575 43.289 86.77 43.4664C86.6825 43.6437 86.5459 43.7933 86.3757 43.898C86.2055 44.0028 86.0086 44.0584 85.8077 44.0586V44.0572Z" fill="#371A45"/>
<path d="M77.3371 98.5045C77.1371 98.5047 76.9411 98.4499 76.7713 98.3463C76.6016 98.2426 76.4649 98.0944 76.3769 97.9184C71.8837 88.9656 61.1 86.8854 60.9908 86.8658C60.7169 86.8094 60.4764 86.6501 60.3209 86.4219C60.1654 86.1938 60.1073 85.9151 60.1591 85.6454C60.2108 85.3758 60.3682 85.1368 60.5976 84.9796C60.827 84.8224 61.1101 84.7596 61.3862 84.8046C61.8701 84.894 73.3388 87.1083 78.2966 96.9935C78.3766 97.1533 78.4138 97.3305 78.4047 97.5083C78.3955 97.6861 78.3404 97.8587 78.2444 98.0099C78.1484 98.161 78.0148 98.2857 77.856 98.3723C77.6973 98.4588 77.5187 98.5043 77.3371 98.5045V98.5045Z" fill="#371A45"/>
<path d="M124.022 109.241C123.844 109.241 123.668 109.198 123.511 109.115C123.354 109.033 123.221 108.913 123.123 108.766C118.511 101.813 106.063 106.249 105.938 106.295C105.674 106.386 105.384 106.371 105.131 106.254C104.878 106.138 104.681 105.928 104.583 105.671C104.485 105.415 104.494 105.13 104.608 104.88C104.721 104.629 104.93 104.432 105.19 104.33C105.767 104.12 119.371 99.2606 124.917 107.623C125.022 107.782 125.082 107.965 125.09 108.154C125.097 108.343 125.053 108.53 124.961 108.696C124.868 108.862 124.732 109 124.567 109.097C124.401 109.193 124.211 109.244 124.019 109.243L124.022 109.241Z" fill="#371A45"/>
<path d="M118.312 77.8249C116.136 77.8215 113.967 77.5714 111.849 77.0795C110.906 76.8711 110.085 76.3039 109.569 75.5027C109.052 74.7015 108.882 73.732 109.094 72.8074C109.307 71.8828 109.885 71.0789 110.703 70.5726C111.52 70.0662 112.509 69.8988 113.453 70.1073C115.963 70.6493 120.78 71.3669 124.803 70.0293C125.642 69.7469 126.56 69.7979 127.361 70.1713C128.162 70.5447 128.782 71.2108 129.088 72.0269C129.394 72.8429 129.361 73.744 128.998 74.5369C128.634 75.3298 127.968 75.9514 127.142 76.2685C125.372 76.946 122.31 77.8249 118.312 77.8249ZM112.66 72.1163C112.312 72.1174 111.975 72.2368 111.707 72.4541C111.438 72.6714 111.255 72.9732 111.188 73.3081C111.113 73.686 111.192 74.0775 111.406 74.3998C111.621 74.722 111.955 74.9497 112.338 75.0346C118.949 76.5551 123.961 75.2379 126.361 74.313C126.672 74.1998 126.925 73.9698 127.064 73.6738C127.203 73.3777 127.216 73.0397 127.1 72.7342C126.985 72.4287 126.75 72.1807 126.448 72.0448C126.146 71.9088 125.801 71.896 125.49 72.0092C121.198 73.4321 116.323 72.8718 112.99 72.1447C112.882 72.1236 112.771 72.114 112.66 72.1163Z" fill="#371A45"/>
<path d="M103.608 82.9541C103.387 82.9541 103.167 82.9341 102.951 82.8945L83.2495 79.3332C81.2131 78.9652 79.8755 76.9664 80.2688 74.8781L82.7 61.9561C83.0926 59.8678 85.0696 58.4686 87.1061 58.8392L106.807 62.4005C108.844 62.7691 110.181 64.7673 109.788 66.8556L107.357 79.7777C107.176 80.7632 106.618 81.6437 105.796 82.2386C105.164 82.7007 104.397 82.9515 103.608 82.9541V82.9541ZM86.4501 60.8746C85.6717 60.8746 84.9625 61.4845 84.8021 62.3362L82.3703 75.2582C82.1912 76.2068 82.7594 77.1121 83.636 77.2706L103.337 80.832C103.545 80.8675 103.758 80.8605 103.963 80.8114C104.167 80.7624 104.36 80.6722 104.527 80.5467C104.91 80.2676 105.169 79.8554 105.252 79.3948L107.684 66.4748C107.863 65.5262 107.295 64.621 106.419 64.4624L86.7176 60.9011C86.6295 60.8842 86.5399 60.8753 86.4501 60.8746V60.8746Z" fill="#371A45"/>
<path d="M108.736 66.6625L106.305 79.5852C106.02 81.1009 104.597 82.1261 103.144 81.8639L83.4433 78.3019C81.9916 78.0397 81.0349 76.5842 81.3197 75.0685L83.7509 62.1464C84.0364 60.63 85.4583 59.6048 86.912 59.8677L106.613 63.4291C108.066 63.692 109.023 65.1467 108.736 66.6625Z" fill="white"/>
<path d="M103.605 82.0407C103.443 82.0404 103.281 82.0257 103.121 81.9967L83.42 78.4354C81.8882 78.1582 80.8859 76.6371 81.1859 75.0434L83.6171 62.1214C83.9164 60.5284 85.406 59.4578 86.9351 59.7343L106.636 63.2956C108.168 63.5727 109.17 65.0939 108.87 66.6876L106.439 79.6096C106.301 80.3664 105.873 81.043 105.243 81.5007C104.77 81.8477 104.196 82.037 103.605 82.0407V82.0407ZM86.4498 59.9619C85.2311 59.9619 84.1286 60.8773 83.8853 62.1708L81.4541 75.0929C81.1817 76.5395 82.0852 77.919 83.4671 78.1691L103.168 81.7304C103.501 81.7887 103.842 81.7789 104.171 81.7017C104.5 81.6245 104.809 81.4816 105.079 81.2819C105.653 80.8654 106.042 80.2493 106.167 79.5601L108.599 66.6381C108.871 65.1921 107.967 63.8119 106.586 63.5626L86.8847 60.0006C86.7412 59.975 86.5957 59.9621 86.4498 59.9619Z" fill="#371A45"/>
<g opacity="0.35">
<path opacity="0.35" d="M103.353 82.4222L83.6523 78.8602C82.2007 78.5987 81.2419 77.1419 81.5281 75.6275L83.9586 62.7041C84.071 62.0951 84.3796 61.5375 84.8392 61.1131L83.0648 70.5436C82.7786 72.0587 83.6717 73.5019 85.048 73.7506L100.43 76.5327C99.7926 75.7386 99.5064 74.5474 99.7511 73.3027C100.146 71.3154 101.756 69.9481 103.34 70.2536C104.925 70.5592 105.898 72.4144 105.503 74.4018C105.26 75.6275 104.556 76.6161 103.679 77.1243H103.698C105.075 77.3729 106.431 76.3349 106.718 74.8205L108.538 65.1393C108.938 65.7574 109.083 66.5015 108.945 67.2208L106.512 80.1435C106.23 81.6593 104.805 82.6851 103.353 82.4222Z" fill="#371A45"/>
</g>
<path d="M112.945 67.4234L110.514 80.3462C110.228 81.8619 108.806 82.8871 107.353 82.6248L103.144 81.8639C104.595 82.1262 106.019 81.101 106.304 79.5852L108.735 66.6625C109.021 65.1468 108.065 63.692 106.612 63.4291L110.821 64.19C112.274 64.4529 113.23 65.9077 112.945 67.4234Z" fill="white"/>
<path d="M107.815 82.8044C107.652 82.8041 107.49 82.7893 107.331 82.7604L103.123 82.0001L103.174 81.7338H103.177C103.509 81.7914 103.85 81.7813 104.178 81.704C104.506 81.6267 104.815 81.4839 105.084 81.2846C105.658 80.8682 106.048 80.2521 106.173 79.5629L108.604 66.6408C108.876 65.1949 107.973 63.8147 106.591 63.5653L106.642 63.2984L110.849 64.0586C112.38 64.3357 113.383 65.8569 113.083 67.4505L110.652 80.3726C110.513 81.1295 110.085 81.806 109.455 82.2637C108.981 82.6113 108.406 82.8009 107.815 82.8044V82.8044ZM104.334 81.9432L107.376 82.4941C107.709 82.5523 108.05 82.5425 108.379 82.4654C108.708 82.3882 109.017 82.2452 109.287 82.0455C109.861 81.6291 110.25 81.0129 110.375 80.3238L112.806 67.4018L112.945 67.4261L112.806 67.4018C113.079 65.9558 112.176 64.5756 110.794 64.3262L107.752 63.7754C108.617 64.4069 109.09 65.5296 108.872 66.6889L106.44 79.611C106.303 80.3678 105.875 81.0444 105.245 81.5021C104.97 81.7004 104.662 81.8488 104.334 81.9405V81.9432Z" fill="#371A45"/>
<g opacity="0.35">
<path opacity="0.35" d="M107.353 82.6255L103.146 81.8639C104.598 82.1268 106.021 81.1003 106.306 79.5852L106.89 76.4833L109.165 76.8898C109.534 76.9537 109.912 76.939 110.275 76.8469C110.638 76.7548 110.976 76.5873 111.267 76.3559L110.517 80.3421C110.228 81.8626 108.807 82.887 107.353 82.6255Z" fill="#371A45"/>
</g>
<path d="M107.818 83.6175C107.603 83.6174 107.389 83.5982 107.179 83.5599L102.97 82.799L103.32 80.9336C103.541 80.9711 103.768 80.9635 103.986 80.9112C104.204 80.859 104.409 80.7633 104.587 80.63C104.99 80.3353 105.263 79.9011 105.351 79.4158L107.782 66.4931C107.971 65.4896 107.368 64.5356 106.438 64.3655L106.789 62.4995L110.998 63.2604C112.98 63.6188 114.281 65.5641 113.898 67.5969L111.467 80.5196C111.29 81.4798 110.746 82.3377 109.946 82.9175C109.331 83.3687 108.585 83.6141 107.818 83.6175V83.6175ZM106.443 81.498L107.53 81.6945C107.751 81.7322 107.978 81.7248 108.197 81.6725C108.415 81.6203 108.62 81.5244 108.799 81.391C109.201 81.0962 109.473 80.6618 109.56 80.1767L111.996 67.252L112.947 67.4234L111.996 67.252C112.185 66.2465 111.581 65.2911 110.648 65.123L109.562 64.9265C109.767 65.542 109.811 66.1982 109.689 66.8346L107.257 79.7553C107.139 80.3931 106.859 80.9915 106.443 81.4953V81.498Z" fill="#371A45"/>
<path d="M113.22 71.1277C116.113 71.7551 120.969 72.4063 125.146 71.0193C125.485 70.9064 125.846 70.8719 126.2 70.9184C126.555 70.9649 126.894 71.0911 127.191 71.2873C127.487 71.4834 127.734 71.7442 127.911 72.0491C128.087 72.3541 128.19 72.695 128.21 73.0452V73.0452C128.239 73.5223 128.113 73.996 127.851 74.399C127.589 74.8019 127.204 75.1135 126.75 75.2894C124.28 76.238 119.014 77.6473 112.095 76.055C111.443 75.9076 110.875 75.5178 110.51 74.9677C110.145 74.4177 110.013 73.7503 110.14 73.1062V73.1062C110.206 72.7762 110.339 72.4624 110.53 72.1834C110.722 71.9044 110.968 71.6656 111.255 71.4813C111.542 71.297 111.864 71.1708 112.201 71.11C112.539 71.0493 112.885 71.0553 113.22 71.1277Z" fill="white"/>
<g opacity="0.35">
<path opacity="0.35" d="M128.118 73.8238C128.019 74.1541 127.844 74.4579 127.607 74.712C127.37 74.9662 127.077 75.1638 126.75 75.29C124.282 76.2387 119.015 77.6473 112.096 76.0557C111.444 75.9078 110.876 75.5177 110.511 74.9676C110.147 74.4174 110.015 73.7501 110.142 73.1062C110.159 73.0256 110.177 72.9484 110.2 72.8725C110.236 72.7568 110.279 72.6436 110.33 72.5337C110.481 72.9238 110.728 73.2714 111.048 73.5459C111.369 73.8204 111.754 74.0134 112.168 74.1077C119.09 75.7013 124.357 74.2933 126.823 73.342C127.343 73.143 127.771 72.7637 128.025 72.2762C128.133 72.5198 128.196 72.7806 128.21 73.0459C128.226 73.3084 128.195 73.5717 128.118 73.8238V73.8238Z" fill="#371A45"/>
</g>
<path d="M118.312 77.7225C116.143 77.7182 113.983 77.4681 111.872 76.9772C110.968 76.7635 110.185 76.2094 109.693 75.4347C109.202 74.66 109.041 73.7269 109.246 72.8369C109.451 71.947 110.004 71.1717 110.787 70.6785C111.57 70.1854 112.52 70.014 113.431 70.2015C115.952 70.7483 120.787 71.4651 124.836 70.1201C125.649 69.8515 126.536 69.9044 127.309 70.2673C128.082 70.6303 128.68 71.2748 128.976 72.0636C129.271 72.8524 129.241 73.7231 128.892 74.4903C128.542 75.2576 127.901 75.8608 127.104 76.1716C125.342 76.8498 122.295 77.7225 118.312 77.7225ZM112.66 72.014C112.289 72.0154 111.929 72.143 111.642 72.3751C111.355 72.6072 111.16 72.9295 111.088 73.2871C111.008 73.6903 111.091 74.1082 111.32 74.4522C111.549 74.7961 111.906 75.039 112.315 75.1295C118.951 76.6567 123.987 75.3327 126.398 74.4038C126.724 74.2739 126.985 74.0248 127.127 73.7092C127.269 73.3935 127.28 73.0362 127.158 72.7128C127.036 72.3894 126.79 72.1253 126.472 71.9765C126.155 71.8278 125.791 71.806 125.457 71.9157C121.188 73.3339 116.332 72.7729 113.014 72.0512C112.898 72.027 112.779 72.0152 112.66 72.016V72.014Z" fill="#371A45"/>
<g opacity="0.35">
<path opacity="0.35" d="M81.2703 73.2506C81.2703 73.2506 78.92 72.7593 76.6244 72.1936C76.1932 72.0876 75.7917 71.8885 75.4492 71.6108C76.5364 70.1361 77.3799 68.5028 77.9488 66.7709C77.9913 66.7782 78.0333 66.788 78.0746 66.8001C79.6742 67.2378 81.4998 67.7019 82.2533 67.7751L81.2703 73.2506Z" fill="#371A45"/>
</g>
<path d="M83.3347 64.1887L82.3538 69.6655C82.3538 69.6655 79.9987 69.1736 77.7078 68.6078C76.1179 68.2155 75.1557 66.6639 75.5649 65.1603C75.9707 63.6595 77.5855 62.7847 79.1595 63.2143C80.7577 63.6507 82.5819 64.1162 83.3347 64.1887Z" fill="white"/>
<g opacity="0.35">
<path opacity="0.35" d="M82.3533 69.6641C82.3533 69.6641 80.003 69.1729 77.7073 68.6071C76.1216 68.2148 75.1559 66.6652 75.5644 65.1603L75.5872 65.0844C75.7226 64.6374 75.9728 64.2319 76.3138 63.9068C76.4375 64.4264 76.7055 64.9024 77.0883 65.2819C77.4711 65.6613 77.9535 65.9295 78.4822 66.0567C80.2837 66.5019 82.1217 66.8996 82.8261 67.0507L82.3533 69.6641Z" fill="#371A45"/>
</g>
<path d="M103.607 82.8538C103.393 82.8538 103.179 82.8345 102.969 82.7962L83.2678 79.2349C81.2866 78.8771 79.9857 76.9311 80.3686 74.8984L82.7998 61.9764C83.1821 59.9436 85.1045 58.5776 87.0856 58.9368L106.787 62.4981C108.768 62.8565 110.069 64.8019 109.686 66.8346L107.256 79.7553C107.08 80.7157 106.536 81.5738 105.735 82.1532C105.121 82.6047 104.375 82.8503 103.607 82.8538V82.8538ZM86.4497 60.775C85.6202 60.775 84.8708 61.416 84.7008 62.3185L82.2703 75.2406C82.0816 76.2454 82.6851 77.2008 83.6176 77.3695L103.319 80.9309C103.54 80.9686 103.767 80.9611 103.986 80.9088C104.204 80.8566 104.409 80.7608 104.588 80.6273C104.991 80.3326 105.265 79.8984 105.352 79.4131L107.783 66.4904L108.735 66.6625L107.783 66.4904C107.972 65.4855 107.369 64.5301 106.436 64.3621L86.7352 60.8001C86.641 60.7834 86.5454 60.775 86.4497 60.775V60.775Z" fill="#371A45"/>
<path d="M83.1327 70.7977L82.1511 70.5944C82.1276 70.5897 79.7524 70.0924 77.4705 69.5286C76.9631 69.406 76.4859 69.1852 76.0668 68.8792C75.6478 68.5732 75.2954 68.1881 75.0304 67.7466C74.7746 67.3261 74.607 66.8598 74.5375 66.375C74.468 65.8902 74.4979 65.3967 74.6255 64.9234C74.7531 64.4501 74.9758 64.0065 75.2806 63.6186C75.5854 63.2308 75.9661 62.9065 76.4005 62.6648C76.853 62.4106 77.3528 62.2476 77.8705 62.1854C78.3882 62.1233 78.9133 62.1633 79.415 62.303C82.1649 63.053 83.1098 63.217 83.4292 63.2475L84.4661 63.3484L83.1327 70.7977ZM78.3422 64.0531C77.9985 64.0522 77.6605 64.1396 77.362 64.3065C77.1499 64.4235 76.9639 64.5811 76.815 64.7699C76.6662 64.9587 76.5575 65.1748 76.4955 65.4055C76.4335 65.6363 76.4194 65.8768 76.454 66.113C76.4886 66.3492 76.5712 66.5761 76.697 66.7804C76.8323 67.0051 77.0121 67.201 77.2257 67.3566C77.4394 67.5122 77.6827 67.6243 77.9413 67.6863C79.2927 68.0203 80.6773 68.3307 81.5725 68.5258L82.2112 64.9584C81.5718 64.8229 80.5522 64.5782 78.8931 64.1263C78.7137 64.0777 78.5284 64.0531 78.3422 64.0531V64.0531Z" fill="#371A45"/>
<path d="M91.9585 80.3041C91.927 80.3041 91.8955 80.3013 91.8645 80.296C91.7951 80.284 91.7287 80.2588 91.6693 80.2216C91.6099 80.1845 91.5586 80.1362 91.5183 80.0795C91.478 80.0228 91.4496 79.9589 91.4346 79.8913C91.4196 79.8238 91.4184 79.7541 91.431 79.6861L92.5709 73.3996C92.6366 73.0286 92.5511 72.6472 92.3329 72.3373C92.1148 72.0274 91.7812 71.8137 91.4041 71.7423L91.1684 71.6982C90.5178 71.5744 89.9423 71.2066 89.5643 70.673C89.1864 70.1394 89.036 69.4823 89.145 68.8416L90.6098 60.4606C90.6196 60.391 90.6436 60.3239 90.6803 60.2636C90.7171 60.2032 90.7658 60.1506 90.8237 60.1091C90.8816 60.0675 90.9474 60.0378 91.0172 60.0217C91.087 60.0056 91.1594 60.0034 91.2301 60.0152C91.3008 60.0271 91.3684 60.0528 91.4288 60.0907C91.4891 60.1287 91.5411 60.1782 91.5816 60.2362C91.6221 60.2943 91.6502 60.3597 91.6644 60.4286C91.6785 60.4976 91.6784 60.5686 91.664 60.6375L90.1992 69.0191C90.1362 69.389 90.223 69.7684 90.4412 70.0765C90.6595 70.3846 90.9918 70.5969 91.3674 70.6683L91.6032 70.7117C92.2563 70.8355 92.8339 71.2055 93.2118 71.7421C93.5897 72.2788 93.7379 72.9393 93.6244 73.5819L92.488 79.8711C92.4659 79.9928 92.4006 80.103 92.3037 80.1822C92.2069 80.2614 92.0846 80.3046 91.9585 80.3041V80.3041Z" fill="#371A45"/>
<path d="M100.407 71.7782C100.347 72.0818 100.297 74.6105 100.297 74.6105L102.058 74.9493C103.271 75.1803 104.498 74.1362 104.798 72.6184C105.099 71.1006 104.361 69.6818 103.148 69.4507L101.386 69.1153C101.386 69.1153 100.505 71.2856 100.407 71.7782Z" fill="#22A7F0"/>
<path d="M102.391 75.6322C102.236 75.6322 102.082 75.6177 101.93 75.5889L99.6172 75.1485L99.6283 74.5976C99.6435 73.8204 99.6863 71.9774 99.7506 71.6535C99.855 71.1264 100.614 69.242 100.765 68.87L100.973 68.3652L103.278 68.8043C104.07 68.9554 104.73 69.469 105.139 70.2503C105.519 70.9787 105.631 71.8622 105.458 72.7397C105.12 74.4268 103.801 75.6322 102.391 75.6322ZM100.977 74.0738L102.185 74.3035C103.015 74.4621 103.913 73.6327 104.142 72.491C104.259 71.9002 104.189 71.3168 103.945 70.8479C103.729 70.4332 103.4 70.1649 103.02 70.0924L101.805 69.8607C101.48 70.6819 101.114 71.6474 101.064 71.9002C101.037 72.0804 101.004 73.0636 100.977 74.0725V74.0738Z" fill="#371A45"/>
<path d="M103.047 72.2903C103.348 70.7721 102.609 69.354 101.396 69.123C100.184 68.8919 98.9566 69.9354 98.6555 71.4536C98.3544 72.9718 99.0935 74.3898 100.306 74.6209C101.519 74.852 102.746 73.8085 103.047 72.2903Z" fill="#22A7F0"/>
<path d="M100.63 75.2968C100.475 75.2968 100.32 75.2823 100.168 75.2535C99.3763 75.1024 98.7168 74.5888 98.3076 73.8075C97.9281 73.0798 97.8147 72.1956 97.9889 71.3181C98.3601 69.4473 99.9397 68.1701 101.514 68.4723C103.089 68.7745 104.065 70.5376 103.694 72.4077C103.359 74.0914 102.04 75.2968 100.63 75.2968ZM101.051 69.736C100.28 69.736 99.509 70.5206 99.3016 71.5654C99.1841 72.1563 99.2539 72.7404 99.4986 73.2086C99.715 73.6232 100.043 73.8916 100.424 73.9641C101.257 74.1219 102.152 73.2933 102.381 72.1515C102.609 71.0098 102.093 69.9115 101.259 69.7529C101.19 69.7409 101.12 69.7352 101.051 69.736V69.736Z" fill="#371A45"/>
<path d="M140.158 142.009C147.434 143.856 153.331 145.353 150.491 156.103C147.651 166.852 141.753 165.355 134.477 163.508C127.202 161.661 113.347 153.005 114.914 147.071C116.482 141.137 132.882 140.162 140.158 142.009Z" fill="white"/>
<path d="M141.772 164.933C139.534 164.933 137.053 164.303 134.441 163.64C126.826 161.706 113.207 152.992 114.781 147.039C115.741 143.407 121.831 142.002 125.376 141.489C130.431 140.756 136.385 140.913 140.191 141.879C143.774 142.789 147.158 143.648 149.214 145.622C151.495 147.812 151.941 151.153 150.624 156.138C148.8 163.037 145.652 164.933 141.772 164.933ZM131.994 141.299C129.793 141.296 127.594 141.448 125.416 141.755C121.939 142.26 115.968 143.624 115.047 147.108C113.54 152.811 127.177 161.518 134.509 163.38C141.795 165.229 147.549 166.69 150.354 156.072C151.644 151.19 151.22 147.932 149.019 145.817C147.014 143.893 143.666 143.044 140.121 142.143C137.934 141.585 135.028 141.299 131.994 141.299Z" fill="#371A45"/>
<g opacity="0.35">
<path opacity="0.35" d="M150.489 156.102C147.649 166.854 141.75 165.355 134.475 163.509C127.201 161.663 113.344 153.007 114.913 147.071C114.971 146.848 115.051 146.632 115.152 146.424C119.15 151.119 127.456 155.741 132.546 157.033C139.82 158.879 145.719 160.377 148.559 149.629C148.933 148.214 149.156 146.959 149.242 145.844C151.176 147.797 151.879 150.844 150.489 156.102Z" fill="#371A45"/>
</g>
<path d="M141.847 165.769C139.47 165.769 136.877 165.112 134.23 164.439C127.495 162.729 112.109 153.856 113.965 146.831C114.766 143.797 118.775 141.609 125.252 140.67C130.408 139.925 136.497 140.087 140.402 141.077C144.097 142.014 147.587 142.9 149.803 145.029C152.32 147.446 152.84 151.042 151.439 156.344C149.477 163.767 145.991 165.769 141.847 165.769ZM132.004 142.122C129.841 142.119 127.68 142.269 125.538 142.571C119.973 143.377 116.447 145.105 115.864 147.31C114.577 152.181 127.032 160.623 134.722 162.575C142.082 164.444 146.945 165.679 149.54 155.86C151.125 149.861 149.666 147.589 148.43 146.402C146.588 144.633 143.493 143.847 139.91 142.938C137.787 142.401 134.961 142.124 132.004 142.124V142.122Z" fill="#371A45"/>
<path d="M161.965 153.032C158.072 151.971 154.12 153.917 153.139 157.377C152.158 160.837 154.518 164.502 158.411 165.563C161.282 166.346 170.076 165.071 174.494 164.344C174.729 164.305 174.947 164.202 175.124 164.046C175.3 163.891 175.428 163.689 175.491 163.464C175.555 163.24 175.552 163.002 175.483 162.78C175.413 162.557 175.28 162.358 175.1 162.207C171.697 159.356 164.837 153.814 161.965 153.032Z" fill="#D73C2C"/>
<path d="M159.565 154.119C157.063 153.437 154.461 154.911 153.752 157.411C153.043 159.91 154.496 162.493 156.997 163.17C159.498 163.848 169.135 161.602 169.135 161.602C169.135 161.602 162.066 154.8 159.565 154.119Z" fill="#E5A900"/>
<path d="M157.711 155.719C156.04 155.264 154.344 156.098 153.923 157.583C153.502 159.068 154.515 160.641 156.185 161.096C157.855 161.552 164.198 160.387 164.198 160.387C164.198 160.387 159.381 156.174 157.711 155.719Z" fill="#FFFF00"/>
<path d="M162.201 166.627C160.379 166.627 158.861 166.505 157.905 166.203C153.55 164.824 151.062 160.516 152.351 156.599C153.64 152.682 158.234 150.617 162.588 151.996C165.411 152.89 171.271 157.88 175.691 161.909C176.002 162.193 176.224 162.557 176.331 162.96C176.437 163.362 176.425 163.786 176.294 164.182C176.163 164.578 175.92 164.929 175.593 165.194C175.266 165.459 174.868 165.627 174.447 165.678C170.488 166.163 165.763 166.627 162.201 166.627ZM159.834 153.491C157.273 153.491 154.969 154.911 154.217 157.191C153.259 160.098 155.185 163.32 158.509 164.373C160.387 164.968 166.256 164.743 174.206 163.77C174.256 163.764 174.304 163.744 174.344 163.712C174.383 163.68 174.412 163.638 174.428 163.59C174.444 163.543 174.445 163.492 174.432 163.443C174.419 163.395 174.393 163.351 174.355 163.317C168.488 157.969 163.864 154.421 161.985 153.826C161.29 153.605 160.565 153.492 159.834 153.491V153.491Z" fill="#371A45"/>
<path d="M152.614 163.056L155.822 151.844C156.21 150.489 155.086 149.066 153.463 148.863L151.118 148.566L146.857 163.457L149.018 164.399C150.512 165.052 152.228 164.411 152.614 163.056Z" fill="#F92323"/>
<g opacity="0.7">
<path opacity="0.7" d="M153.462 148.863L151.116 148.567L150.494 150.741L152.813 151.034C154.435 151.238 155.56 152.66 155.172 154.016L152.503 163.346C152.547 163.252 152.584 163.155 152.614 163.056L155.821 151.844C156.208 150.489 155.084 149.071 153.462 148.863Z" fill="white"/>
</g>
<g opacity="0.35">
<path opacity="0.35" d="M155.822 151.845L152.614 163.055C152.225 164.41 150.511 165.052 149.02 164.399L146.859 163.458L148.991 156.012L151.003 156.893C152.498 157.545 154.213 156.903 154.602 155.549L155.886 151.061C155.918 151.324 155.896 151.59 155.822 151.845V151.845Z" fill="#371A45"/>
</g>
<path d="M150.512 165.785C150.023 165.784 149.54 165.682 149.095 165.486L145.683 163.996L150.4 147.504L154.105 147.972C154.586 148.028 155.049 148.186 155.463 148.433C155.876 148.68 156.231 149.012 156.502 149.406C156.73 149.733 156.883 150.104 156.95 150.495C157.017 150.886 156.996 151.286 156.889 151.668L153.432 163.746C153.214 164.511 152.672 165.127 151.903 165.481C151.468 165.681 150.993 165.785 150.512 165.785V165.785ZM148.029 162.917L149.892 163.73C150.076 163.814 150.276 163.858 150.478 163.861C150.681 163.863 150.882 163.823 151.068 163.744C151.18 163.697 151.281 163.627 151.363 163.538C151.445 163.45 151.507 163.344 151.543 163.23V163.23L154.999 151.152C155.029 151.036 155.032 150.915 155.009 150.797C154.986 150.679 154.937 150.568 154.866 150.47C154.749 150.308 154.599 150.172 154.424 150.07C154.25 149.969 154.055 149.905 153.854 149.883L151.832 149.628L148.029 162.917Z" fill="#371A45"/>
<path d="M134.115 164.374C133.855 164.373 133.606 164.272 133.422 164.091C133.239 163.911 133.136 163.666 133.136 163.411V161.205C133.145 154.971 134.765 148.84 137.845 143.385L138.935 141.456C139.062 141.233 139.273 141.068 139.523 140.998C139.773 140.927 140.042 140.957 140.269 141.081C140.497 141.205 140.665 141.412 140.737 141.657C140.809 141.902 140.778 142.165 140.652 142.388L139.561 144.317C136.642 149.488 135.106 155.299 135.098 161.209V163.414C135.097 163.54 135.072 163.665 135.022 163.782C134.973 163.898 134.9 164.004 134.809 164.093C134.718 164.183 134.61 164.253 134.491 164.301C134.372 164.349 134.244 164.374 134.115 164.374V164.374Z" fill="#371A45"/>
</svg>
