<svg width="100" height="163" viewBox="0 0 100 163" fill="none" xmlns="http://www.w3.org/2000/svg">
<g clip-path="url(#clip0_2_987)">
<path opacity="0.3" d="M49.9533 162.349C76.6583 162.349 98.307 159.813 98.307 156.685C98.307 153.557 76.6583 151.022 49.9533 151.022C23.2483 151.022 1.59961 153.557 1.59961 156.685C1.59961 159.813 23.2483 162.349 49.9533 162.349Z" fill="#1A1D63"/>
<path d="M82.2235 83.5349C82.0025 81.2326 80.3162 79.369 78.1181 79.0173C68.841 77.5312 59.4602 76.7589 50.0609 76.7071H49.8493C40.45 76.7589 31.0692 77.5312 21.7921 79.0173C19.5941 79.369 17.9077 81.2326 17.6867 83.5349C16.0613 100.501 16.0572 117.581 17.6746 134.548C17.8997 136.929 19.6918 138.83 21.9769 139.094C31.3043 140.167 40.6873 140.707 50.0783 140.71C59.3894 140.708 68.6922 140.167 77.9387 139.09C80.2157 138.827 82.0119 136.924 82.2382 134.544C83.8551 117.578 83.8501 100.5 82.2235 83.5349Z" fill="#F2F2F2"/>
<path opacity="0.4" d="M43.3334 135.046C47.791 135.976 52.3976 135.976 56.8553 135.046V131.825H43.3267L43.3334 135.046Z" fill="#1A1D63"/>
<path opacity="0.3" d="M23.2324 123.629C20.8296 122.919 18.6019 121.729 16.6892 120.132C16.6097 118.232 16.5521 116.333 16.5164 114.433C16.9132 114.894 17.3344 115.334 17.7781 115.75C19.3032 117.183 21.0711 118.341 23.002 119.175C23.0543 120.636 23.132 122.125 23.2324 123.629Z" fill="#1A1D63"/>
<path opacity="0.3" d="M76.6755 123.629C79.0784 122.919 81.3061 121.729 83.2188 120.132C83.2983 118.232 83.3559 116.333 83.3916 114.433C82.9948 114.894 82.5736 115.334 82.1298 115.75C80.6047 117.183 78.8368 118.341 76.9059 119.175C76.8537 120.636 76.776 122.125 76.6755 123.629Z" fill="#1A1D63"/>
<path d="M17.6855 83.5348C17.9065 81.2326 19.5928 79.3689 21.7908 79.0173C31.068 77.5312 40.4488 76.7588 49.8481 76.7071H50.0597C59.4589 76.7588 68.8398 77.5312 78.1169 79.0173C80.3149 79.3689 82.0013 81.2326 82.2223 83.5348C83.8486 100.501 83.8535 117.58 82.237 134.548C82.012 136.929 80.2198 138.83 77.9347 139.094C68.6073 140.167 59.2244 140.707 49.8333 140.71V140.71C40.5223 140.708 31.2195 140.167 21.973 139.09C19.6893 138.827 17.8984 136.924 17.6734 134.544C16.0557 117.578 16.0597 100.5 17.6855 83.5348V83.5348Z" stroke="#1A1D63" stroke-width="2.78383" stroke-linecap="round" stroke-linejoin="round"/>
<path d="M83.426 90.4355C75.2394 81.6546 68.7833 79.8989 63.2313 78.757H36.6783C36.2318 78.8448 35.7773 78.9419 35.3147 79.0481L34.8513 79.1548C34.7522 79.1772 34.6517 79.2009 34.5526 79.2259C34.207 79.3089 33.8588 79.3971 33.5051 79.4893L33.2373 79.5644C33.1448 79.5894 33.0538 79.6144 32.9613 79.6421L32.7149 79.7119C32.5193 79.7685 32.3238 79.8278 32.1269 79.891L31.8523 79.978C31.4737 80.0991 31.0901 80.2308 30.7017 80.3731L30.4124 80.4811C30.3159 80.5166 30.2195 80.5548 30.1217 80.593C29.8833 80.6852 29.6427 80.7827 29.3998 80.8854C29.3047 80.9249 29.2082 80.9658 29.1131 81.0079C28.9551 81.0764 28.797 81.1396 28.6376 81.2186C28.4448 81.3069 28.2492 81.3978 28.0536 81.4926C27.9451 81.544 27.8353 81.598 27.7255 81.6533L27.4187 81.8074L27.1294 81.9575L26.7986 82.134L26.5454 82.2657L26.311 82.3974C26.2333 82.4409 26.1543 82.4857 26.0766 82.5291L25.1685 83.0731L24.9006 83.243L24.6742 83.3892C24.5805 83.4485 24.4881 83.509 24.3943 83.5723L23.8746 83.9226L23.5799 84.1281L23.2464 84.3651L22.9316 84.5943L22.6637 84.7919L22.3182 85.0553C22.203 85.1435 22.0878 85.2344 21.9726 85.3253C21.8574 85.4162 21.7435 85.5057 21.6284 85.5992L21.2721 85.889C21.0363 86.0826 20.8006 86.2841 20.5622 86.4869C20.443 86.5884 20.3237 86.6924 20.2045 86.7978L20.1456 86.8491C19.9759 86.9993 19.8049 87.1525 19.6326 87.3088C19.4611 87.4642 19.2897 87.6249 19.1156 87.7869L17.6033 89.2673C17.3609 89.5149 17.1144 89.7691 16.868 90.0286L16.8573 90.0391L16.4849 90.4342C13.5078 93.9601 11.9879 98.4579 12.2268 103.035C12.4854 107.834 13.9373 112.205 17.7065 115.747C19.2315 117.179 20.9994 118.338 22.9303 119.171C23.0401 121.937 23.2196 124.802 23.4888 127.678C23.5612 128.454 23.6402 129.23 23.7259 130.006C23.7688 130.395 23.8134 130.782 23.8599 131.169C23.9295 131.749 24.0027 132.329 24.0795 132.909C24.1295 133.277 24.1804 133.646 24.2322 134.014C24.2336 134.031 24.2363 134.048 24.2403 134.065C24.3215 134.642 24.4086 135.216 24.5014 135.788C24.5309 135.979 24.5617 136.168 24.5939 136.358C24.626 136.548 24.6555 136.737 24.689 136.927C24.7225 137.117 24.7546 137.306 24.7881 137.495C24.8216 137.683 24.8551 137.871 24.8899 138.06C24.9917 138.623 25.1002 139.184 25.2127 139.739C25.2502 139.925 25.2877 140.109 25.3265 140.293C25.6346 141.769 25.9762 143.211 26.3552 144.609C25.3703 145.001 24.4453 145.524 23.6067 146.165C22.8591 146.729 22.3531 147.548 22.1882 148.461C21.9485 149.826 21.8967 151.217 22.0342 152.596C22.1107 153.361 22.457 154.076 23.0131 154.616C23.5691 155.156 24.2999 155.488 25.0787 155.554C29.8846 155.985 34.7209 155.973 39.5246 155.519C40.1949 155.456 40.8278 155.186 41.333 154.748C41.8382 154.31 42.1897 153.727 42.3374 153.081C43.135 149.575 43.6913 146.021 44.0023 142.442C44.2823 138.772 44.3586 135.224 44.2863 131.764C44.5336 131.834 44.7814 131.9 45.0297 131.962C45.2493 132.016 45.4686 132.067 45.6873 132.113C47.0691 132.411 48.4786 132.567 49.8932 132.578H50.0271C51.9252 132.561 53.812 132.287 55.634 131.764C55.5617 135.224 55.634 138.772 55.918 142.442C56.229 146.021 56.7853 149.575 57.5829 153.081C57.7306 153.727 58.0821 154.31 58.5873 154.748C59.0925 155.186 59.7254 155.456 60.3957 155.519C65.1993 155.973 70.0357 155.985 74.8416 155.554C75.6204 155.488 76.3512 155.156 76.9072 154.616C77.4633 154.076 77.8096 153.361 77.8861 152.596C78.0236 151.217 77.9718 149.826 77.7321 148.461C77.5672 147.548 77.0612 146.729 76.3136 146.165C75.4765 145.528 74.5538 145.007 73.5718 144.619C75.6948 136.781 76.6632 127.54 76.9954 119.181C78.9262 118.347 80.694 117.188 82.2192 115.756C85.9883 112.215 87.443 107.843 87.6988 103.044C87.9359 98.4625 86.4105 93.9613 83.426 90.4355Z" fill="white"/>
<path d="M26.3481 144.612C29.1865 143.493 31.4703 143.943 31.4703 143.943L26.3481 144.612Z" fill="white"/>
<path d="M45.0229 131.954C45.2413 132.008 45.461 132.06 45.6806 132.106C47.0621 132.406 48.4718 132.563 49.8865 132.573" fill="white"/>
<path d="M24.2246 134.016C24.171 133.649 24.1201 133.28 24.0719 132.911C23.9942 132.333 23.921 131.753 23.8522 131.171C23.8058 130.784 23.7612 130.396 23.7183 130.008C23.629 129.233 23.55 128.457 23.4812 127.681" fill="white"/>
<path d="M22.9244 119.174C22.7985 116.038 22.7636 113.025 22.7904 110.258L22.9244 119.174Z" fill="white"/>
<path d="M24.8821 138.062C24.8475 137.875 24.8129 137.686 24.781 137.497L24.8821 138.062Z" fill="white"/>
<path opacity="0.3" d="M64.2741 126.365C53.7539 129.614 47.5696 129.526 35.6805 126.309C35.6648 126.302 35.6476 126.297 35.63 126.295C35.6123 126.294 35.5946 126.296 35.5777 126.301C35.5609 126.306 35.5452 126.315 35.5317 126.326C35.5182 126.338 35.5071 126.351 35.499 126.367C35.4909 126.382 35.486 126.399 35.4846 126.416C35.4831 126.434 35.4852 126.451 35.4906 126.468C35.496 126.484 35.5047 126.5 35.5161 126.513C35.5276 126.526 35.5416 126.537 35.5573 126.545C44.9684 133.573 54.5777 133.743 64.4 126.601C64.4318 126.584 64.4556 126.556 64.4663 126.522C64.477 126.489 64.4736 126.452 64.4569 126.421C64.4402 126.389 64.4116 126.366 64.3773 126.356C64.343 126.345 64.3059 126.348 64.2741 126.365Z" fill="#1A1D63"/>
<path opacity="0.3" d="M75.2032 130.831C76.0149 121.264 75.3733 111.944 73.194 106.106C73.1543 105.991 73.1558 105.867 73.1983 105.753C73.2407 105.64 73.3216 105.544 73.4273 105.482C73.533 105.421 73.6571 105.396 73.7788 105.414C73.9004 105.432 74.0123 105.49 74.0955 105.579C75.5133 107.189 76.6773 109 77.5486 110.95C77.9853 110.987 75.6412 130.874 75.2032 130.831Z" fill="#1A1D63"/>
<path opacity="0.3" d="M65.4247 127.545C65.4247 127.545 63.4611 132.747 55.6694 135.283L55.6949 131.757C59.069 130.665 62.3275 129.255 65.4247 127.545Z" fill="#1A1D63"/>
<path opacity="0.3" d="M34.4841 127.545C34.4841 127.545 36.4478 132.747 44.2395 135.283L44.214 131.757C40.8399 130.665 37.5813 129.255 34.4841 127.545Z" fill="#1A1D63"/>
<path opacity="0.3" d="M77.8755 152.589C77.799 153.354 77.4527 154.069 76.8966 154.609C76.3405 155.149 75.6097 155.481 74.8309 155.547C70.0249 155.978 65.1885 155.966 60.3848 155.512C59.7145 155.449 59.0815 155.179 58.5763 154.741C58.0712 154.303 57.7196 153.72 57.5719 153.074C56.7743 149.568 56.218 146.014 55.907 142.434C55.7248 140.036 55.6284 137.693 55.6042 135.383L55.6391 135.403C56.728 141.129 57.9162 146.646 60.0472 150.337C60.5656 151.236 61.8327 152.093 62.8762 152.228C66.4485 152.693 70.0383 152.755 73.9281 152.182C75.1918 151.998 76.3841 151.491 77.3853 150.711C77.5714 150.565 77.7496 150.411 77.921 150.251C77.9635 151.031 77.9482 151.812 77.8755 152.589Z" fill="#1A1D63"/>
<path opacity="0.3" d="M22.034 152.589C22.1106 153.354 22.4569 154.069 23.0129 154.609C23.569 155.149 24.2998 155.481 25.0786 155.547C29.8846 155.978 34.721 155.966 39.5248 155.512C40.1951 155.449 40.828 155.179 41.3332 154.741C41.8384 154.303 42.1899 153.72 42.3376 153.074C43.1353 149.568 43.6915 146.014 44.0026 142.434C44.1847 140.036 44.2812 137.693 44.3053 135.383L44.2705 135.403C43.1815 141.129 41.9934 146.646 39.8623 150.337C39.3439 151.236 38.0768 152.093 37.0334 152.228C33.461 152.693 29.8712 152.755 25.9814 152.182C24.7177 151.998 23.5254 151.491 22.5243 150.711C22.3381 150.565 22.1599 150.411 21.9885 150.251C21.9461 151.031 21.9613 151.812 22.034 152.589Z" fill="#1A1D63"/>
<path d="M50.0215 132.573C48.0783 132.569 46.1454 132.294 44.2806 131.757C44.3529 135.217 44.2806 138.765 43.9966 142.434C43.6856 146.014 43.1293 149.568 42.3317 153.074C42.184 153.72 41.8324 154.303 41.3273 154.741C40.8221 155.179 40.1891 155.449 39.5188 155.512C34.7151 155.966 29.8787 155.978 25.0727 155.547C24.2938 155.481 23.5631 155.149 23.007 154.609C22.4509 154.069 22.1046 153.354 22.0281 152.589C21.8906 151.21 21.9424 149.819 22.1821 148.453C22.3499 147.543 22.8577 146.726 23.606 146.164C24.4431 145.527 25.3658 145.007 26.3479 144.618C29.1862 143.5 31.47 143.949 31.47 143.949" stroke="#1A1D63" stroke-width="2.78383" stroke-linecap="round" stroke-linejoin="round"/>
<path d="M26.3482 144.612C23.4281 133.833 22.6914 120.4 22.7905 110.258" stroke="#1A1D63" stroke-width="2.78383" stroke-linecap="round" stroke-linejoin="round"/>
<path d="M25.7527 105.219C28.4745 105.816 31.6464 105.944 35.4036 105.483C36.2465 105.39 37.0965 105.377 37.9419 105.444H37.9579C43.4162 105.878 46.1394 112.048 42.78 116.385C42.5856 116.645 42.3608 116.882 42.1103 117.09C41.2383 117.82 39.6282 118.703 38.5526 119.075C37.7588 119.351 36.969 119.61 36.1831 119.855C29.7162 121.863 22.605 120.354 17.6985 115.745C13.9293 112.204 12.4746 107.832 12.2188 103.033C11.9798 98.4561 13.4998 93.9583 16.4769 90.4324C24.6624 81.6514 31.1186 79.8958 36.6707 78.7539" fill="white"/>
<path d="M24.0922 102.834C24.0922 102.845 24.0922 102.855 24.0988 102.866C24.2489 103.517 24.593 104.109 25.0871 104.567C25.5813 105.025 26.203 105.327 26.8729 105.436C29.3362 105.841 32.1544 105.883 35.4026 105.486C36.2455 105.393 37.0955 105.38 37.9409 105.447H37.9569C43.4153 105.881 46.1384 112.051 42.779 116.388C42.5846 116.648 42.3598 116.885 42.1093 117.093C41.2373 117.823 39.6273 118.706 38.5517 119.078C37.7578 119.354 36.968 119.613 36.1822 119.858C29.7152 121.866 22.604 120.357 17.6976 115.748C13.9283 112.207 12.4736 107.835 12.2178 103.036C11.9788 98.4591 13.4988 93.9613 16.476 90.4354V90.4354C24.6614 81.6544 31.1176 79.8988 36.6697 78.7569" stroke="#1A1D63" stroke-width="2.78383" stroke-linecap="round" stroke-linejoin="round"/>
<path d="M30.4654 105.755C26.3631 110.76 26.8212 115.734 31.8397 120.676" stroke="#1A1D63" stroke-width="2.78383" stroke-linecap="round" stroke-linejoin="round"/>
<path d="M49.8872 132.573C51.8305 132.569 53.7633 132.294 55.6281 131.757C55.5558 135.217 55.6281 138.765 55.9121 142.434C56.2232 146.014 56.7794 149.568 57.5771 153.074C57.7248 153.72 58.0763 154.303 58.5815 154.741C59.0867 155.179 59.7196 155.449 60.3899 155.512C65.1937 155.966 70.0301 155.978 74.8361 155.547C75.6149 155.481 76.3457 155.149 76.9017 154.609C77.4578 154.069 77.8041 153.354 77.8807 152.589C78.0181 151.21 77.9663 149.819 77.7266 148.453C77.5617 147.541 77.0558 146.722 76.3081 146.158C75.471 145.521 74.5483 145 73.5662 144.612C70.7279 143.493 68.4441 143.942 68.4441 143.942" stroke="#1A1D63" stroke-width="2.78383" stroke-linecap="round" stroke-linejoin="round"/>
<path d="M73.5598 144.612C76.4798 133.833 77.2166 120.4 77.1174 110.258" stroke="#1A1D63" stroke-width="2.78383" stroke-linecap="round" stroke-linejoin="round"/>
<path d="M74.1563 105.219C71.4358 105.816 68.2627 105.944 64.5122 105.483C63.667 105.39 62.8148 105.377 61.9672 105.444H61.9511C56.4928 105.878 53.7697 112.048 57.129 116.385C57.3231 116.645 57.5479 116.882 57.7988 117.09C58.6694 117.82 60.2795 118.703 61.355 119.075C62.1489 119.35 62.9387 119.61 63.7246 119.854C70.1928 121.863 77.3027 120.354 82.2092 115.745C85.9784 112.204 87.4331 107.832 87.6889 103.033C87.9284 98.4562 86.4089 93.9584 83.4321 90.4323C75.2453 81.6514 68.7891 79.8957 63.237 78.7538" fill="white"/>
<path d="M75.8159 102.833C75.8165 102.843 75.8165 102.854 75.8159 102.864C75.6663 103.515 75.3225 104.108 74.8285 104.565C74.3346 105.023 73.713 105.325 73.0432 105.434C70.5786 105.839 67.7604 105.882 64.5122 105.484C63.667 105.391 62.8148 105.378 61.9672 105.446H61.9511C56.4928 105.879 53.7697 112.05 57.129 116.387C57.3231 116.647 57.5479 116.883 57.7988 117.091C58.6694 117.821 60.2795 118.705 61.355 119.076C62.1489 119.352 62.9387 119.612 63.7246 119.856C70.1928 121.864 77.3027 120.355 82.2092 115.747C85.9784 112.205 87.4331 107.834 87.6889 103.034C87.9284 98.4575 86.4089 93.9597 83.4321 90.4337V90.4337C75.2453 81.6527 68.7891 79.8971 63.237 78.7552" stroke="#1A1D63" stroke-width="2.78383" stroke-linecap="round" stroke-linejoin="round"/>
<path d="M69.4422 105.755C73.5454 110.76 73.0873 115.734 68.0679 120.676" stroke="#1A1D63" stroke-width="2.78383" stroke-linecap="round" stroke-linejoin="round"/>
<path d="M35.4333 127.191C45.1596 134.19 54.8855 134.19 64.6109 127.191" stroke="#1A1D63" stroke-width="2.78383" stroke-linecap="round" stroke-linejoin="round"/>
<path d="M24.5693 136.259C31.015 137.776 37.6891 138.115 44.2595 137.26" stroke="#1A1D63" stroke-width="2.78383" stroke-linecap="round" stroke-linejoin="round"/>
<path d="M55.6436 137.262C62.214 138.116 68.888 137.776 75.3337 136.259" stroke="#1A1D63" stroke-width="2.78383" stroke-linecap="round" stroke-linejoin="round"/>
<path opacity="0.3" d="M75.1359 83.2464C58.3929 91.5001 41.65 91.5001 24.907 83.2464C29.3271 80.4384 33.1834 79.4756 36.6793 78.7565H63.3663C66.8609 79.4756 70.7158 80.4424 75.1359 83.2464Z" fill="#1A1D63"/>
<path opacity="0.3" d="M15.5681 113.328C16.2031 114.2 16.9206 115.01 17.7113 115.748C22.615 120.358 29.7262 121.866 36.1959 119.856C36.9808 119.613 37.7697 119.353 38.5627 119.077C39.6343 118.706 41.2483 117.822 42.1203 117.093C42.3709 116.884 42.5956 116.648 42.79 116.388C43.3383 115.688 43.7473 114.893 43.9956 114.044C33.3173 118.495 23.5969 119.235 15.5681 113.328Z" fill="#1A1D63"/>
<path opacity="0.3" d="M84.3399 113.328C83.705 114.2 82.9874 115.01 82.1968 115.748C77.2943 120.358 70.1818 121.866 63.7122 119.856C62.9272 119.613 62.1388 119.353 61.3467 119.077C60.2751 118.706 58.6597 117.822 57.7891 117.093C57.5382 116.885 57.3134 116.648 57.1193 116.388C56.5715 115.688 56.1626 114.892 55.9138 114.044C66.592 118.495 76.3125 119.235 84.3399 113.328Z" fill="#1A1D63"/>
<path opacity="0.3" d="M62.2772 119.39C62.1728 119.935 62.0669 120.481 61.9705 121.028C61.8366 121.818 60.6618 122.431 59.8582 122.548C53.353 123.506 46.7389 123.506 40.2337 122.548C39.4434 122.432 38.2767 121.838 38.1267 121.068C38.0155 120.495 37.895 119.92 37.7798 119.346C38.0383 119.261 38.2982 119.171 38.558 119.083L38.7536 119.012C38.7844 119.089 38.8202 119.165 38.8607 119.238C38.8832 119.28 38.9078 119.32 38.9344 119.359C38.9612 119.399 38.9893 119.437 39.0174 119.475C39.0762 119.549 39.1397 119.618 39.2077 119.683C39.4889 119.949 39.8476 120.122 40.2337 120.179C41.0552 120.298 41.8763 120.403 42.697 120.493C43.1086 120.54 43.5189 120.581 43.9279 120.617C44.5441 120.674 45.1593 120.722 45.7737 120.761L46.5412 120.805C47.0529 120.833 47.5659 120.854 48.0776 120.869L48.8451 120.887C49.6622 120.903 50.4797 120.903 51.2977 120.887L51.7504 120.877C51.9018 120.877 52.0531 120.877 52.2045 120.863L52.6586 120.848L53.1113 120.829L53.7154 120.799H53.7837C54.1775 120.778 54.5704 120.753 54.9624 120.724C55.3549 120.696 55.7474 120.663 56.1398 120.628L56.2537 120.617C56.6198 120.583 56.9855 120.546 57.3507 120.506C58.1883 120.419 59.0246 120.312 59.8595 120.186C60.1391 120.145 60.4056 120.043 60.6391 119.886L60.7315 119.819C60.7703 119.79 60.8065 119.76 60.8413 119.728L60.8936 119.679C61.0727 119.507 61.2148 119.301 61.3115 119.073L61.3544 119.089C61.6624 119.189 61.9701 119.289 62.2772 119.39Z" fill="#1A1D63"/>
<path d="M42.7984 116.159C42.7492 116.11 42.7022 116.06 42.6575 116.009L42.5757 115.914L42.6588 116.009C42.7031 116.06 42.7501 116.11 42.7984 116.159Z" fill="white"/>
<path d="M61.3106 119.062C61.2139 119.289 61.0718 119.495 60.8927 119.667L60.8404 119.716C60.8043 119.748 60.7681 119.778 60.7306 119.807L60.6382 119.874C60.4047 120.031 60.1382 120.134 59.8586 120.175C59.0228 120.297 58.1865 120.403 57.3498 120.495C56.9837 120.534 56.618 120.571 56.2528 120.605L56.1389 120.616C55.746 120.651 55.3536 120.683 54.9615 120.712C54.5691 120.74 54.1753 120.766 53.7828 120.787H53.7145L53.1104 120.817L52.6577 120.836L52.2036 120.852L51.7495 120.865L51.2968 120.875C50.4797 120.89 49.6622 120.89 48.8442 120.875L48.0767 120.857C47.565 120.841 47.052 120.82 46.5403 120.794L45.7728 120.749C45.1584 120.709 44.5432 120.661 43.927 120.605C43.5172 120.568 43.1073 120.526 42.6961 120.481C41.8763 120.394 41.0552 120.289 40.2328 120.167C39.8467 120.111 39.488 119.937 39.2068 119.671C39.1388 119.606 39.0753 119.537 39.0166 119.463C38.9884 119.425 38.9603 119.387 38.9335 119.347C38.9067 119.308 38.8826 119.267 38.8598 119.226C38.8193 119.153 38.7835 119.077 38.7527 119C39.2784 118.795 39.7895 118.556 40.2824 118.283C40.9299 117.941 41.5434 117.541 42.1147 117.086C42.3653 116.878 42.5901 116.641 42.7845 116.381L42.893 116.239C42.9479 116.165 43.0001 116.092 43.051 116.017C43.2322 115.751 43.3951 115.475 43.5386 115.188C44.2764 113.723 44.4519 112.046 44.0328 110.464C43.636 108.932 42.7044 107.586 41.4008 106.661C47.1016 106.925 52.8023 106.928 58.5031 106.672C57.0414 107.716 56.0564 109.284 55.7612 111.037C55.6468 111.689 55.6319 112.355 55.717 113.012C55.7899 113.597 55.9403 114.169 56.1644 114.715C56.4092 115.313 56.735 115.875 57.1328 116.387C57.2092 116.484 57.2775 116.568 57.3444 116.65C57.4838 116.811 57.6365 116.961 57.8012 117.097C58.6598 117.813 60.2364 118.684 61.3106 119.062Z" fill="white"/>
<path d="M61.3106 119.062C61.2139 119.289 61.0718 119.495 60.8927 119.667L60.8404 119.716C60.8043 119.748 60.7681 119.778 60.7306 119.807L60.6382 119.874C60.4047 120.031 60.1382 120.133 59.8586 120.175C59.0228 120.297 58.1865 120.403 57.3498 120.495C56.9837 120.534 56.618 120.571 56.2528 120.605L56.1389 120.616C55.746 120.651 55.3536 120.683 54.9615 120.712C54.5691 120.74 54.1753 120.766 53.7828 120.787H53.7145L53.1104 120.817L52.6577 120.836L52.2036 120.852L51.7495 120.865L51.2968 120.875C50.4797 120.89 49.6622 120.89 48.8442 120.875L48.0767 120.857C47.565 120.841 47.052 120.82 46.5403 120.794L45.7728 120.749C45.1584 120.709 44.5432 120.661 43.927 120.605C43.5172 120.568 43.1073 120.526 42.6961 120.481C41.8763 120.394 41.0552 120.289 40.2328 120.167C39.8467 120.111 39.488 119.937 39.2068 119.671C39.1388 119.606 39.0753 119.537 39.0166 119.463C38.9884 119.425 38.9603 119.387 38.9335 119.347C38.9067 119.308 38.8826 119.267 38.8598 119.226C38.8193 119.153 38.7835 119.077 38.7527 119C39.2784 118.795 39.7895 118.556 40.2824 118.283C40.9299 117.941 41.5434 117.541 42.1147 117.086C42.3653 116.878 42.5901 116.641 42.7845 116.381L42.893 116.239C42.9479 116.165 43.0001 116.092 43.051 116.017C43.2322 115.751 43.3951 115.475 43.5386 115.188C44.2764 113.723 44.4519 112.046 44.0328 110.464C43.636 108.932 42.7044 107.586 41.4008 106.661C47.1016 106.925 52.8023 106.928 58.5031 106.672C57.0414 107.716 56.0564 109.284 55.7612 111.037C55.6468 111.689 55.6319 112.355 55.717 113.012C55.7899 113.597 55.9403 114.169 56.1644 114.715C56.4092 115.313 56.735 115.875 57.1328 116.387C57.2092 116.484 57.2775 116.568 57.3445 116.65C57.4838 116.811 57.6365 116.961 57.8012 117.097C58.6598 117.813 60.2364 118.684 61.3106 119.062Z" stroke="#1A1D63" stroke-width="2.78383" stroke-linecap="round" stroke-linejoin="round"/>
<path d="M48.8816 113.716C48.8812 114.641 48.5071 115.529 47.8415 116.183C47.1759 116.838 46.2733 117.206 45.332 117.206C45.2771 117.206 45.2208 117.206 45.1672 117.206C45.1364 117.206 45.1056 117.206 45.0748 117.206L44.9743 117.198C44.9668 117.199 44.9591 117.199 44.9516 117.198C44.9033 117.198 44.8565 117.189 44.8082 117.181L44.7533 117.172C44.7186 117.168 44.6842 117.161 44.6502 117.153L44.5792 117.14L44.456 117.111H44.4386C44.3974 117.102 44.3567 117.091 44.3167 117.078C44.2939 117.078 44.2725 117.065 44.2497 117.058C44.1836 117.039 44.1193 117.017 44.0568 116.991C43.9302 116.944 43.8068 116.889 43.6871 116.827C43.5795 116.771 43.4749 116.711 43.3737 116.645L43.3027 116.597L43.2384 116.553L43.1406 116.479C43.1004 116.447 43.0602 116.416 43.0214 116.383L42.9075 116.283L42.8875 116.264C42.9424 116.19 42.9946 116.117 43.0455 116.042C43.2267 115.776 43.3896 115.5 43.5331 115.213C44.2709 113.748 44.4464 112.071 44.0273 110.489C44.6665 110.241 45.3651 110.18 46.0384 110.315C46.7117 110.45 47.3308 110.774 47.8207 111.247C47.8609 111.287 47.9011 111.328 47.9399 111.369C47.9788 111.409 48.0176 111.453 48.0538 111.5C48.0899 111.548 48.1462 111.61 48.1877 111.668C48.2132 111.7 48.2386 111.735 48.2614 111.77C48.3267 111.863 48.3871 111.96 48.4422 112.059C48.4703 112.109 48.4971 112.16 48.5226 112.212C48.548 112.263 48.5721 112.314 48.5949 112.367C48.6177 112.42 48.6391 112.474 48.6592 112.526C48.6793 112.579 48.6994 112.636 48.7168 112.691C48.7342 112.746 48.7503 112.802 48.7664 112.858C48.8154 113.042 48.8481 113.23 48.8641 113.419C48.8758 113.509 48.8816 113.608 48.8816 113.716Z" fill="#6CCFF9"/>
<path opacity="0.4" d="M48.8816 113.716C48.8812 114.641 48.5071 115.529 47.8415 116.183C47.1759 116.838 46.2733 117.205 45.332 117.206C45.2771 117.206 45.2208 117.206 45.1672 117.206C45.1364 117.206 45.1056 117.206 45.0748 117.206L44.9743 117.198C44.9668 117.199 44.9591 117.199 44.9516 117.198C44.9033 117.198 44.8565 117.189 44.8082 117.181L44.7533 117.172C44.7186 117.167 44.6842 117.161 44.6502 117.153L44.5792 117.14L44.456 117.111H44.4386C44.3974 117.102 44.3567 117.091 44.3167 117.078C44.2939 117.078 44.2725 117.065 44.2497 117.058C44.1836 117.039 44.1193 117.017 44.0568 116.991C43.9302 116.944 43.8068 116.889 43.6871 116.827C43.5795 116.771 43.4749 116.711 43.3737 116.645L43.3027 116.597L43.2384 116.553L43.1406 116.479C43.1004 116.447 43.0602 116.416 43.0214 116.383L42.9075 116.283L42.8875 116.264C42.9424 116.19 42.9946 116.117 43.0455 116.042C43.2267 115.776 43.3896 115.5 43.5331 115.213C43.7902 115.27 44.053 115.299 44.3167 115.299C44.7828 115.299 45.2445 115.209 45.6752 115.033C46.106 114.858 46.4973 114.601 46.827 114.277C47.1566 113.953 47.4181 113.568 47.5964 113.144C47.7747 112.721 47.8664 112.267 47.8662 111.808C47.8662 111.758 47.8662 111.71 47.8662 111.661C47.8595 111.522 47.8451 111.384 47.8234 111.247C47.8636 111.287 47.9037 111.328 47.9426 111.369C47.9814 111.409 48.0203 111.453 48.0565 111.5C48.0926 111.548 48.1475 111.61 48.1904 111.668C48.2158 111.7 48.2413 111.735 48.2654 111.77C48.3307 111.863 48.3911 111.96 48.4462 112.059C48.4744 112.109 48.5011 112.16 48.5266 112.212C48.552 112.263 48.5762 112.314 48.5989 112.367C48.6217 112.42 48.6431 112.474 48.6632 112.526C48.6833 112.579 48.7034 112.636 48.7208 112.691C48.7382 112.746 48.7543 112.802 48.7704 112.858C48.8194 113.042 48.8521 113.23 48.8682 113.419C48.8771 113.509 48.8816 113.608 48.8816 113.716Z" fill="#1A1D63"/>
<path d="M48.8816 113.716C48.8812 114.641 48.5071 115.529 47.8415 116.183C47.1759 116.838 46.2733 117.206 45.332 117.206C45.2771 117.206 45.2208 117.206 45.1672 117.206C45.1364 117.206 45.1056 117.206 45.0748 117.206L44.9743 117.198C44.9668 117.199 44.9591 117.199 44.9516 117.198C44.9033 117.198 44.8565 117.189 44.8082 117.181L44.7533 117.172C44.7186 117.168 44.6842 117.161 44.6502 117.153L44.5792 117.14L44.456 117.111H44.4386C44.3974 117.102 44.3567 117.091 44.3167 117.078C44.2939 117.078 44.2725 117.065 44.2497 117.058C44.1836 117.039 44.1193 117.017 44.0568 116.991C43.9302 116.944 43.8068 116.889 43.6871 116.827C43.5795 116.771 43.4749 116.711 43.3737 116.645L43.3027 116.597L43.2384 116.553L43.1406 116.479C43.1004 116.447 43.0602 116.416 43.0214 116.383L42.9075 116.283L42.8875 116.264C42.9424 116.19 42.9946 116.117 43.0455 116.042C43.2267 115.776 43.3896 115.5 43.5331 115.213C44.2709 113.748 44.4464 112.071 44.0273 110.489C44.6665 110.241 45.3651 110.18 46.0384 110.315C46.7117 110.45 47.3308 110.774 47.8207 111.247C47.8609 111.287 47.9011 111.328 47.9399 111.369C47.9788 111.409 48.0176 111.453 48.0538 111.5C48.0899 111.548 48.1462 111.61 48.1877 111.668C48.2132 111.7 48.2386 111.735 48.2614 111.77C48.3267 111.863 48.3871 111.96 48.4422 112.059C48.4703 112.109 48.4971 112.16 48.5226 112.212C48.548 112.263 48.5721 112.314 48.5949 112.367C48.6177 112.42 48.6391 112.474 48.6592 112.526C48.6793 112.579 48.6994 112.636 48.7168 112.691C48.7342 112.746 48.7503 112.802 48.7664 112.858C48.8154 113.042 48.8481 113.23 48.8641 113.419C48.8758 113.509 48.8816 113.608 48.8816 113.716Z" stroke="#1A1D63" stroke-width="2.41265" stroke-linecap="round" stroke-linejoin="round"/>
<path d="M55.7121 113.014C54.7342 113.044 53.6091 113.074 52.7143 113.087H52.7036C52.5203 113.087 52.3445 113.016 52.2149 112.888C52.0853 112.761 52.0125 112.588 52.0125 112.408V111.789C52.0131 111.61 52.0855 111.438 52.2138 111.311C52.3421 111.184 52.5161 111.111 52.6983 111.109C53.7122 111.1 54.7342 111.079 55.7562 111.046C55.6427 111.696 55.6278 112.359 55.7121 113.014Z" fill="#1A1D63"/>
<path d="M57.3388 116.646C56.3141 116.684 54.1977 116.754 52.7136 116.778H52.7029C52.5196 116.778 52.3438 116.706 52.2142 116.579C52.0845 116.451 52.0117 116.278 52.0117 116.098V115.477C52.0124 115.297 52.0847 115.126 52.213 114.999C52.3413 114.871 52.5154 114.799 52.6975 114.797C53.8441 114.786 55.0041 114.761 56.1587 114.721C56.4035 115.318 56.7293 115.88 57.1271 116.392C57.2035 116.485 57.2718 116.57 57.3388 116.646Z" fill="#1A1D63"/>
<path opacity="0.3" d="M38.3902 121.582C33.4463 124.67 25.4818 123.865 23.1552 123.545L23.1431 123.366C23.0521 121.953 22.9797 120.551 22.9248 119.175C27.1143 120.977 31.8276 121.22 36.1855 119.857C36.7132 119.694 37.2437 119.522 37.7768 119.342C37.892 119.916 38.0125 120.491 38.1237 121.064C38.1575 121.221 38.2256 121.37 38.3233 121.5C38.3437 121.529 38.366 121.556 38.3902 121.582Z" fill="#1A1D63"/>
<path opacity="0.3" d="M61.5188 121.582C66.4628 124.67 74.4272 123.865 76.7539 123.545L76.7659 123.366C76.857 121.953 76.9293 120.551 76.9843 119.175C72.7948 120.977 68.0815 121.22 63.7236 119.857C63.1958 119.694 62.6654 119.522 62.1323 119.342C62.0171 119.916 61.8965 120.491 61.7854 121.064C61.7516 121.221 61.6835 121.37 61.5858 121.5C61.5654 121.529 61.543 121.556 61.5188 121.582Z" fill="#1A1D63"/>
<path d="M49.9542 1.17221C26.6895 1.17221 7.8784 19.7179 7.82884 42.5942C7.76186 73.5455 22.7636 83.4236 49.9542 83.3577C77.1448 83.4236 92.1465 73.5455 92.0795 42.5942C92.0299 19.7179 73.2189 1.17221 49.9542 1.17221Z" fill="white"/>
<path d="M60.5789 2.50245C53.6106 0.728798 46.2979 0.728798 39.3296 2.50245L37.7651 14.1599C45.7121 11.7874 54.1964 11.7874 62.1434 14.1599L60.5789 2.50245Z" stroke="#1A1D63" stroke-width="2.78383" stroke-linecap="round" stroke-linejoin="round"/>
<path d="M49.9543 12.3799C45.8277 12.4232 41.7265 13.0219 37.7651 14.1592L39.0256 17.7706C46.1808 15.8529 53.7277 15.8529 60.8829 17.7706L62.1434 14.1592C58.182 13.0219 54.0808 12.4232 49.9543 12.3799V12.3799Z" stroke="#1A1D63" stroke-width="2.78383" stroke-linecap="round" stroke-linejoin="round"/>
<path d="M49.9542 1.17221C26.6895 1.17221 7.8784 19.7179 7.82884 42.5942C7.76186 73.5455 22.7636 83.4236 49.9542 83.3577C77.1448 83.4236 92.1465 73.5455 92.0795 42.5942C92.0299 19.7179 73.2189 1.17221 49.9542 1.17221Z" stroke="#1A1D63" stroke-width="2.78383" stroke-linecap="round" stroke-linejoin="round"/>
<path d="M92.0795 42.5935C92.0902 47.7196 91.6884 52.2688 90.8847 56.2911C90.3969 58.6823 89.273 60.9036 87.6276 62.7285C85.9821 64.5533 83.8739 65.9164 81.518 66.6789C60.4754 73.5646 39.4333 73.5646 18.3916 66.6789C16.0148 65.9011 13.8915 64.5151 12.2397 62.6634C10.5879 60.8116 9.46721 58.5609 8.9928 56.1423C8.21057 52.1581 7.81811 47.6603 7.82883 42.5988V42.533C7.84155 40.6106 8.27245 38.7131 9.09259 36.968C9.91274 35.2229 11.1031 33.6705 12.5838 32.4152C37.4572 11.2103 62.3297 10.9688 87.2012 31.6908C88.6873 32.9294 89.8894 34.4637 90.7284 36.1925C91.5674 37.9213 92.0243 39.8053 92.0688 41.7203C92.0755 42.0061 92.0795 42.2998 92.0795 42.5935Z" fill="#080A28"/>
<path opacity="0.75" d="M15.9618 50.0877C15.9112 50.4882 15.7613 50.8703 15.5255 51.2005C15.2896 51.5307 14.9749 51.7989 14.609 51.9817C13.891 52.3399 13.0204 52.3979 12.4109 51.1914C11.6247 49.6373 11.6421 47.8144 11.6461 46.0403V45.9653C11.6461 45.5482 11.6662 45.1324 11.7064 44.718C12.1537 39.9528 13.95 36.2966 19.1149 32.4876C22.8494 29.7336 25.3622 27.7936 29.3846 26.5437C32.6516 25.5282 34.0526 27.9925 31.4701 30.1735C21.8957 38.7819 19.7833 40.207 16.6383 47.5984C16.2996 48.3944 16.072 49.2317 15.9618 50.0877Z" fill="white"/>
<path d="M92.0798 42.5936C92.0905 47.7209 91.6886 52.2688 90.885 56.2911C90.3975 58.6825 89.2737 60.9039 87.6282 62.7287C85.9827 64.5536 83.8744 65.9167 81.5183 66.6789C60.4757 73.5655 39.4336 73.5655 18.3919 66.6789C15.717 65.8046 13.3702 64.1617 11.6545 61.9625C35.8381 65.7477 59.1751 67.1623 76.6548 60.1383C82.9957 57.5898 87.4641 51.821 88.1472 45.1237C88.6294 40.3901 88.1472 35.5986 86.3684 31.0152C86.6443 31.2408 86.9212 31.4687 87.1989 31.6987C88.6847 32.9362 89.8869 34.4693 90.7264 36.197C91.5658 37.9246 92.0234 39.8075 92.0691 41.7217C92.0762 42.0097 92.0798 42.3003 92.0798 42.5936Z" fill="black"/>
<path d="M92.0795 42.5935C92.0902 47.7196 91.6884 52.2688 90.8847 56.2911C90.397 58.6823 89.2731 60.9036 87.6276 62.7285C85.9821 64.5533 83.8739 65.9164 81.518 66.6789C60.4754 73.5646 39.4333 73.5646 18.3916 66.6789C16.0148 65.9011 13.8915 64.5151 12.2397 62.6634C10.5879 60.8116 9.46721 58.5609 8.9928 56.1423C8.21057 52.1581 7.81811 47.6603 7.82883 42.5988V42.533C7.84155 40.6106 8.27245 38.7131 9.09259 36.968C9.91274 35.2229 11.1031 33.6705 12.5838 32.4152C37.4572 11.2103 62.3297 10.9688 87.2012 31.6908C88.6873 32.9294 89.8894 34.4637 90.7284 36.1925C91.5674 37.9213 92.0243 39.8053 92.0688 41.7203C92.0755 42.0061 92.0795 42.2998 92.0795 42.5935Z" stroke="#1A1D63" stroke-width="2.78383" stroke-linecap="round" stroke-linejoin="round"/>
<path opacity="0.2" d="M7.83032 42.4381C7.84778 38.6514 8.39171 34.8848 9.44703 31.243C36.3599 6.39419 63.2719 6.08687 90.183 30.3211C91.3397 33.9885 91.9735 37.796 92.0662 41.6347C92.0108 39.7331 91.5488 37.8642 90.7101 36.1498C89.8715 34.4354 88.6751 32.9138 87.1987 31.6842C62.3263 10.9622 37.4538 11.2033 12.5813 32.4073C11.1124 33.6533 9.9293 35.1918 9.11028 36.921C8.29126 38.6502 7.85499 40.5307 7.83032 42.4381Z" fill="#1A1D63"/>
<path d="M9.44702 31.2469C36.3599 6.39812 63.2719 6.09081 90.183 30.325" stroke="#1A1D63" stroke-width="2.41265" stroke-linecap="round" stroke-linejoin="round"/>
<path d="M97.7191 57.1788C97.6757 57.5287 97.5578 57.8656 97.3732 58.1676C97.1886 58.4696 96.9413 58.7301 96.6475 58.9319C94.4802 60.4004 92.0089 61.5252 89.2483 62.3273C91.1396 56.9945 92.1014 50.4736 92.0839 42.5936C92.0783 37.961 91.2847 33.362 89.7359 28.9868C92.2623 29.6928 94.6308 30.8608 96.7172 32.4297C96.9892 32.6359 97.2163 32.8937 97.3852 33.1878C97.5541 33.4819 97.6612 33.8063 97.7003 34.1419C98.6567 42.2393 98.6629 49.9182 97.7191 57.1788Z" fill="white"/>
<path d="M10.6645 62.3273C7.9039 61.5252 5.4326 60.4004 3.26534 58.9319C2.97154 58.7301 2.72428 58.4696 2.53965 58.1676C2.35502 57.8656 2.23717 57.5287 2.19377 57.1788C1.25525 49.9165 1.26196 42.2375 2.21387 34.1419C2.25295 33.8063 2.3601 33.4819 2.52897 33.1878C2.69785 32.8937 2.92502 32.6359 3.19703 32.4297C5.28178 30.8614 7.64837 29.6934 10.173 28.9868C8.62553 33.3622 7.83325 37.9612 7.8289 42.5936C7.81148 50.4776 8.77322 56.9984 10.6645 62.3273Z" fill="white"/>
<path opacity="0.3" d="M98.2749 51.2033C98.1588 53.2228 97.9736 55.2155 97.7191 57.1815C97.6757 57.5313 97.5578 57.8682 97.3732 58.1702C97.1886 58.4723 96.9413 58.7327 96.6475 58.9345C94.4802 60.4031 92.0089 61.5278 89.2483 62.3299C89.8818 60.5258 90.3941 58.6828 90.782 56.8127C93.7869 55.7092 96.3936 53.7578 98.2749 51.2033Z" fill="#1A1D63"/>
<path opacity="0.3" d="M1.63403 51.2033C1.75101 53.2228 1.93631 55.2155 2.18991 57.1815C2.23331 57.5313 2.35115 57.8682 2.53578 58.1702C2.72041 58.4723 2.96769 58.7327 3.26149 58.9345C5.42874 60.4031 7.90005 61.5278 10.6607 62.3299C10.0272 60.5258 9.51487 58.6828 9.12699 56.8127C6.12206 55.7092 3.51541 53.7578 1.63403 51.2033Z" fill="#1A1D63"/>
<path d="M97.7191 57.1788C97.6757 57.5287 97.5578 57.8656 97.3732 58.1676C97.1886 58.4696 96.9413 58.7301 96.6475 58.9319C94.4802 60.4004 92.0089 61.5252 89.2483 62.3273C91.1396 56.9945 92.1014 50.4736 92.0839 42.5936C92.0783 37.961 91.2847 33.362 89.7359 28.9868C92.2623 29.6928 94.6308 30.8608 96.7172 32.4297C96.9892 32.6359 97.2163 32.8937 97.3852 33.1878C97.5541 33.4819 97.6612 33.8063 97.7003 34.1419C98.6567 42.2393 98.6629 49.9182 97.7191 57.1788Z" stroke="#1A1D63" stroke-width="2.78383" stroke-linecap="round" stroke-linejoin="round"/>
<path d="M10.6645 62.3273C7.90391 61.5252 5.4326 60.4004 3.26534 58.9319C2.97154 58.7301 2.72428 58.4696 2.53965 58.1676C2.35502 57.8656 2.23717 57.5287 2.19377 57.1788C1.25525 49.9165 1.26196 42.2375 2.21387 34.1419C2.25295 33.8063 2.3601 33.4819 2.52897 33.1878C2.69785 32.8937 2.92502 32.6359 3.19703 32.4297C5.28178 30.8614 7.64837 29.6934 10.173 28.9868C8.62553 33.3622 7.83325 37.9612 7.8289 42.5936C7.81148 50.4776 8.77322 56.9984 10.6645 62.3273Z" stroke="#1A1D63" stroke-width="2.78383" stroke-linecap="round" stroke-linejoin="round"/>
<path opacity="0.2" d="M90.8377 56.5177C89.9952 60.6467 88.7254 64.2147 87.0417 67.2769C85.642 68.4478 84.0283 69.3459 82.2867 69.9229C60.7762 77.0482 39.2658 77.0482 17.7553 69.9229C15.8994 69.3082 14.1913 68.3261 12.7364 67.0372C11.0969 63.9908 9.86063 60.4518 9.03955 56.3688C9.54637 58.741 10.6765 60.9412 12.3174 62.7501C13.9582 64.5591 16.0525 65.9137 18.3915 66.6789C39.4332 73.5655 60.4753 73.5655 81.5179 66.6789C83.836 65.9286 85.9149 64.5966 87.5493 62.8146C89.1838 61.0326 90.3172 58.8622 90.8377 56.5177Z" fill="#1A1D63"/>
<path d="M12.7366 67.0385C14.1915 68.3274 15.8996 69.3095 17.7554 69.9242C39.2668 77.0487 60.7773 77.0487 82.2869 69.9242C84.0284 69.3472 85.6422 68.4492 87.0419 67.2782" stroke="#1A1D63" stroke-width="2.41265" stroke-linecap="round" stroke-linejoin="round"/>
<path d="M71.4604 94.4152H67.3778C67.4492 92.7969 67.4568 91.1677 67.4005 89.5275C67.9484 89.4722 68.4989 89.4156 69.0561 89.3563C69.4083 89.3189 69.7434 89.1873 70.0249 88.9757C70.3064 88.7642 70.5235 88.4808 70.6527 88.1564L70.7371 88.6227C70.7991 88.3689 70.8068 88.1052 70.7598 87.8483C70.7598 87.8364 70.7598 87.8245 70.7598 87.8127C70.8021 87.5867 70.8021 87.3551 70.7598 87.1291C70.7223 86.9158 70.6835 86.7024 70.6446 86.489C70.6015 86.2488 70.4664 86.0339 70.2671 85.8886C70.0678 85.7433 69.8194 85.6787 69.5731 85.708C62.2959 86.5154 55.8666 86.9079 49.9477 86.9079C44.03 86.9079 37.6007 86.5127 30.3235 85.708C30.0772 85.6787 29.8289 85.7433 29.6295 85.8886C29.4302 86.0339 29.2951 86.2488 29.252 86.489C29.2132 86.7011 29.1743 86.9145 29.1368 87.1265C29.0968 87.3533 29.099 87.5854 29.1435 87.8114C29.1406 87.8227 29.1384 87.8341 29.1368 87.8456C29.0905 88.1026 29.0982 88.3662 29.1596 88.6201L29.244 88.1551C29.3733 88.4795 29.5905 88.7629 29.8719 88.9747C30.1534 89.1864 30.4883 89.3184 30.8406 89.3563C31.3978 89.4156 31.9496 89.4709 32.4975 89.5262C32.4385 91.22 32.4479 92.9036 32.5256 94.5772H28.4483C27.9332 94.5772 27.4392 94.7784 27.075 95.1365C26.7108 95.4947 26.5061 95.9805 26.5061 96.487V101.406C26.5023 102.797 26.7411 104.178 27.212 105.489C28.4492 105.67 29.6982 105.762 30.9491 105.763C30.1827 104.436 29.7854 102.935 29.7971 101.409V97.8159H32.7787C32.9609 99.6111 33.2261 100.339 33.5824 102.108C33.8169 103.289 34.1438 104.449 34.5602 105.58C34.8401 105.552 35.1228 105.522 35.4081 105.487C36.251 105.394 37.1009 105.381 37.9463 105.448H37.9624C43.3335 105.875 46.0566 111.857 42.9411 116.181C44.3087 116.982 45.8082 117.542 47.3719 117.835H45.6762V119.046C45.6757 119.175 45.6896 119.303 45.7177 119.429L45.9186 119.488C46.0411 119.702 46.2066 119.89 46.4051 120.039C46.6037 120.188 46.831 120.295 47.0732 120.355L46.1825 126.635C45.383 126.671 44.6243 126.993 44.0486 127.539C43.4728 128.086 43.1196 128.82 43.0549 129.605L42.5272 129.569C42.3374 129.556 42.1487 129.608 41.994 129.717C41.8393 129.826 41.7284 129.985 41.6806 130.166C41.6635 130.084 41.6545 130.001 41.6539 129.917V131.497C41.655 131.694 41.7299 131.883 41.8641 132.029C41.9982 132.175 42.1823 132.267 42.3812 132.288C47.3948 132.812 52.4509 132.812 57.4646 132.288C57.6633 132.267 57.8472 132.175 57.9814 132.029C58.1155 131.883 58.1904 131.694 58.1919 131.497V129.917C58.1919 130.001 58.1829 130.085 58.1651 130.167C58.1177 129.986 58.0073 129.827 57.8531 129.718C57.699 129.609 57.5108 129.556 57.3213 129.569L56.8565 129.601C56.7906 128.817 56.4368 128.084 55.8613 127.538C55.2857 126.992 54.5277 126.671 53.7289 126.635L52.8341 120.35C53.0754 120.29 53.3018 120.183 53.5 120.035C53.6981 119.887 53.8639 119.701 53.9874 119.488C54.0544 119.469 54.1213 119.45 54.1897 119.428C54.2187 119.298 54.2331 119.166 54.2325 119.033V117.828H52.5421C54.1061 117.535 55.6057 116.975 56.973 116.173C53.8575 111.849 56.5805 105.867 61.9517 105.44H61.9678C62.8154 105.373 63.6676 105.386 64.5127 105.479C64.798 105.514 65.0806 105.544 65.3606 105.572C65.7773 104.441 66.1042 103.281 66.3383 102.1C66.7 100.279 66.9692 99.4965 67.1527 97.646H70.1183V101.239C70.1314 102.829 69.6985 104.392 68.8672 105.757C70.1298 105.76 71.391 105.672 72.6404 105.493C73.153 104.133 73.4134 102.693 73.4092 101.242V96.3223C73.4089 96.0712 73.3582 95.8226 73.26 95.5908C73.1618 95.3589 73.0181 95.1484 72.8371 94.9713C72.6561 94.7941 72.4413 94.6539 72.205 94.5584C71.9688 94.463 71.7158 94.4143 71.4604 94.4152V94.4152Z" stroke="#1A1D63" stroke-width="2.78383" stroke-linecap="round" stroke-linejoin="round"/>
<path d="M56.8657 129.866H43.0425C43.0425 129.44 43.1277 129.019 43.2934 128.626C43.459 128.233 43.7018 127.877 44.0078 127.576C44.3139 127.275 44.6771 127.037 45.0769 126.875C45.4766 126.712 45.905 126.629 46.3376 126.63H53.5707C54.4435 126.63 55.2806 126.97 55.8978 127.577C56.515 128.184 56.8617 129.007 56.8617 129.866H56.8657Z" fill="#FFBF1F"/>
<path opacity="0.5" d="M56.8465 129.676C56.5855 129.109 56.1637 128.628 55.6318 128.291C55.0999 127.953 54.4804 127.774 53.8475 127.774H46.0599C45.4271 127.775 44.808 127.955 44.2762 128.292C43.7445 128.629 43.3226 129.11 43.0608 129.676C43.1461 128.881 43.5276 128.145 44.1318 127.61C44.736 127.075 45.5201 126.779 46.3331 126.778H53.5702C54.384 126.778 55.169 127.074 55.7741 127.609C56.3791 128.144 56.7611 128.88 56.8465 129.676Z" fill="white"/>
<path d="M56.8657 129.866H43.0425C43.0425 129.44 43.1277 129.019 43.2934 128.626C43.459 128.233 43.7018 127.877 44.0078 127.576C44.3139 127.275 44.6771 127.037 45.0769 126.875C45.4766 126.712 45.905 126.629 46.3376 126.63H53.5707C54.4435 126.63 55.2806 126.97 55.8978 127.577C56.515 128.184 56.8617 129.007 56.8617 129.866H56.8657Z" stroke="#1A1D63" stroke-width="2.22706" stroke-linecap="round" stroke-linejoin="round"/>
<path d="M52.7508 119.768H47.1559L46.1687 126.724H53.738L52.7508 119.768Z" fill="#FFBF1F"/>
<path d="M52.7506 120.07H47.157L46.9119 121.798C47.0245 121.837 47.1407 121.865 47.2588 121.881C49.0449 122.135 50.8587 122.135 52.6448 121.881C52.7642 121.864 52.8817 121.836 52.9957 121.797L52.7506 120.07Z" fill="#FD8B15"/>
<path d="M52.7508 119.768H47.1559L46.1687 126.724H53.738L52.7508 119.768Z" stroke="#1A1D63" stroke-width="2.04147" stroke-linecap="round" stroke-linejoin="round"/>
<path d="M52.6453 120.387C50.8592 120.64 49.0453 120.64 47.2593 120.387C46.8192 120.324 46.4169 120.107 46.1261 119.776C45.8354 119.445 45.6756 119.022 45.676 118.585V117.83H54.2325V118.58C54.2338 119.018 54.074 119.443 53.7823 119.775C53.4907 120.107 53.0869 120.324 52.6453 120.387Z" fill="#FFBF1F"/>
<path d="M45.676 118.29V119.044C45.6756 119.173 45.6895 119.302 45.7176 119.428C48.4714 120.304 51.4359 120.304 54.1897 119.428C54.2187 119.298 54.2331 119.166 54.2325 119.033V118.283L45.676 118.29Z" fill="#FD8B15"/>
<path d="M52.6453 120.387C50.8592 120.64 49.0453 120.64 47.2593 120.387C46.8192 120.324 46.4169 120.107 46.1261 119.776C45.8354 119.445 45.6756 119.022 45.676 118.585V117.83H54.2325V118.58C54.2338 119.018 54.074 119.443 53.7823 119.775C53.4907 120.107 53.0869 120.324 52.6453 120.387V120.387Z" stroke="#1A1D63" stroke-width="2.04147" stroke-linecap="round" stroke-linejoin="round"/>
<path d="M73.4022 96.325V101.244C73.4063 102.695 73.1459 104.135 72.6333 105.496C71.3838 105.675 70.1227 105.763 68.86 105.759C69.6914 104.395 70.1243 102.832 70.1111 101.242V97.6486H65.1738V94.4126H71.4599C71.7152 94.4126 71.968 94.4621 72.2038 94.5582C72.4396 94.6543 72.6538 94.7952 72.8342 94.9729C73.0146 95.1505 73.1576 95.3613 73.2551 95.5933C73.3525 95.8253 73.4025 96.0739 73.4022 96.325Z" fill="#FFBF1F"/>
<path d="M29.7972 97.8133V101.406C29.7854 102.932 30.1827 104.434 30.9491 105.76C29.6983 105.759 28.4493 105.668 27.212 105.487C26.7411 104.175 26.5023 102.794 26.5061 101.404V96.4843C26.5061 95.9778 26.7108 95.4921 27.075 95.1339C27.4392 94.7758 27.9333 94.5746 28.4484 94.5746H34.7345V97.8106L29.7972 97.8133Z" fill="#FFBF1F"/>
<path d="M70.1109 101.397V102.542C70.1153 103.639 69.9132 104.728 69.5149 105.753C69.33 105.753 69.1425 105.76 68.9536 105.76C69.7239 104.432 70.1232 102.926 70.1109 101.397Z" fill="white"/>
<path d="M73.4022 96.4764V97.6223C73.4022 97.1158 73.1975 96.63 72.8333 96.2719C72.469 95.9137 71.975 95.7125 71.4599 95.7125H65.1738V94.568H71.4599C71.9748 94.568 72.4686 94.769 72.8328 95.1269C73.197 95.4847 73.4018 95.9701 73.4022 96.4764Z" fill="white"/>
<path d="M34.7344 95.8745H28.4483C27.9332 95.8745 27.4392 96.0757 27.075 96.4339C26.7107 96.792 26.5061 97.2778 26.5061 97.7843V96.6424C26.5065 96.1361 26.7112 95.6507 27.0754 95.2928C27.4396 94.935 27.9334 94.7339 28.4483 94.7339H34.7344V95.8745Z" fill="white"/>
<path d="M30.862 105.76C30.6825 105.76 30.5057 105.76 30.3262 105.751C29.9691 104.774 29.7878 103.742 29.7904 102.704V101.558C29.782 103.025 30.1506 104.471 30.862 105.76Z" fill="white"/>
<path d="M73.4019 100.962V101.094C73.4061 102.603 73.124 104.099 72.5701 105.506C72.3478 105.54 72.1245 105.569 71.9004 105.593C72.6525 104.14 73.1597 102.576 73.4019 100.962Z" fill="#FD8B15"/>
<path d="M28.0128 105.598C27.7851 105.573 27.5619 105.544 27.3431 105.512C26.7892 104.104 26.5071 102.608 26.5113 101.099V100.968C26.7535 102.581 27.2607 104.145 28.0128 105.598Z" fill="#FD8B15"/>
<path d="M73.4022 96.325V101.244C73.4063 102.695 73.1459 104.135 72.6333 105.496C71.3838 105.675 70.1227 105.763 68.86 105.759C69.6914 104.395 70.1243 102.832 70.1111 101.242V97.6486H65.1738V94.4126H71.4599C71.7152 94.4126 71.968 94.4621 72.2038 94.5582C72.4396 94.6543 72.6538 94.7952 72.8342 94.9729C73.0146 95.1505 73.1576 95.3613 73.2551 95.5933C73.3525 95.8253 73.4025 96.0739 73.4022 96.325V96.325Z" stroke="#1A1D63" stroke-width="2.22706" stroke-linecap="round" stroke-linejoin="round"/>
<path d="M29.7972 97.8133V101.406C29.7854 102.932 30.1827 104.434 30.9491 105.76C29.6983 105.759 28.4493 105.668 27.212 105.487C26.7411 104.175 26.5023 102.794 26.5061 101.404V96.4843C26.5061 95.9778 26.7108 95.4921 27.075 95.1339C27.4392 94.7758 27.9333 94.5746 28.4484 94.5746H34.7345V97.8106L29.7972 97.8133Z" stroke="#1A1D63" stroke-width="2.22706" stroke-linecap="round" stroke-linejoin="round"/>
<path d="M66.3324 102.106C66.0977 103.286 65.7712 104.446 65.3559 105.577C65.0764 105.551 64.7933 105.52 64.5067 105.484C63.6616 105.391 62.8093 105.378 61.9617 105.446H61.9456C56.5744 105.872 53.8512 111.855 56.9668 116.179C54.8435 117.421 52.4187 118.076 49.948 118.076C47.4774 118.076 45.0526 117.421 42.9293 116.179C46.0448 111.855 43.3217 105.872 37.9505 105.446H37.9344C37.089 105.379 36.239 105.391 35.3961 105.484C35.1095 105.519 34.8264 105.55 34.5469 105.577C34.1316 104.446 33.8051 103.286 33.5704 102.106C32.6757 97.6012 32.3381 94.0714 32.4988 89.3998H67.3839C67.5647 94.0662 67.2338 97.6025 66.3324 102.106Z" fill="#FFBF1F"/>
<path d="M56.9726 116.18C54.8493 117.422 52.4245 118.078 49.9539 118.078C47.4832 118.078 45.0584 117.422 42.9351 116.18C43.2951 115.683 43.5882 115.143 43.8071 114.572C45.7514 115.383 47.8418 115.801 49.9539 115.801C52.0659 115.801 54.1563 115.383 56.1007 114.572C56.3195 115.143 56.6126 115.683 56.9726 116.18Z" fill="#FD8B15"/>
<path d="M67.3975 89.9253H32.5125C32.4951 90.4337 32.4817 90.9408 32.4763 91.4478C38.8495 92.084 44.5985 92.3935 49.9536 92.3935C55.3302 92.3935 61.0712 92.084 67.4336 91.4491C67.4283 90.9434 67.4149 90.4363 67.3975 89.9253Z" fill="#FD8B15"/>
<path d="M66.3324 102.106C66.0977 103.286 65.7712 104.446 65.3559 105.577C65.0764 105.551 64.7933 105.52 64.5067 105.484C63.6616 105.391 62.8093 105.378 61.9617 105.446H61.9456C56.5744 105.872 53.8512 111.855 56.9668 116.179C54.8435 117.421 52.4187 118.076 49.948 118.076C47.4774 118.076 45.0526 117.421 42.9293 116.179C46.0448 111.855 43.3217 105.872 37.9505 105.446H37.9344C37.089 105.379 36.239 105.391 35.3961 105.484C35.1095 105.519 34.8264 105.55 34.5469 105.577C34.1316 104.446 33.8051 103.286 33.5704 102.106C32.6757 97.6012 32.3381 94.0714 32.4988 89.3998H67.3839C67.5647 94.0662 67.2338 97.6025 66.3324 102.106Z" stroke="#1A1D63" stroke-width="2.22706" stroke-linecap="round" stroke-linejoin="round"/>
<path d="M70.7603 87.1291C70.8062 87.3865 70.7979 87.6504 70.7358 87.9044C70.6738 88.1585 70.5594 88.3973 70.3997 88.6061C70.2399 88.8149 70.0383 88.9892 69.8073 89.1182C69.5762 89.2473 69.3207 89.3283 69.0565 89.3563C62.0526 90.1044 55.7827 90.4692 49.9535 90.4692C44.147 90.4692 37.8798 90.1044 30.8531 89.3563C30.5888 89.328 30.3332 89.2467 30.1022 89.1173C29.8711 88.988 29.6695 88.8134 29.5098 88.6044C29.3501 88.3954 29.2357 88.1564 29.1737 87.9022C29.1117 87.648 29.1034 87.384 29.1493 87.1265C29.1868 86.9145 29.2257 86.7011 29.2645 86.489C29.3076 86.2488 29.4427 86.0339 29.642 85.8886C29.8414 85.7433 30.0897 85.6787 30.3361 85.708C37.6132 86.5154 44.0425 86.9079 49.9602 86.9079C55.8791 86.9079 62.3084 86.5127 69.5856 85.708C69.8319 85.6787 70.0803 85.7433 70.2796 85.8886C70.479 86.0339 70.6141 86.2488 70.6572 86.489C70.684 86.7024 70.7228 86.9158 70.7603 87.1291Z" fill="#FFBF1F"/>
<path d="M70.7374 88.6232L70.645 88.1108C70.6016 87.8708 70.4663 87.6563 70.267 87.5113C70.0677 87.3662 69.8195 87.3018 69.5734 87.3311C62.2962 88.1372 55.8669 88.5297 49.948 88.5297C44.0303 88.5297 37.601 88.1346 30.3239 87.3311C30.0778 87.3024 29.83 87.3672 29.6308 87.5121C29.4317 87.657 29.2963 87.8711 29.2523 88.1108C29.2228 88.2808 29.192 88.4507 29.1612 88.6206C29.0999 88.3667 29.0921 88.1031 29.1385 87.8461C29.176 87.6341 29.2148 87.4207 29.2523 87.2087C29.2963 86.9688 29.4316 86.7545 29.6307 86.6094C29.8298 86.4643 30.0777 86.3993 30.3239 86.4276C37.601 87.235 44.0303 87.6275 49.948 87.6275C55.8669 87.6275 62.2962 87.2324 69.5734 86.4276C69.8197 86.3983 70.0681 86.4629 70.2674 86.6082C70.4667 86.7535 70.6019 86.9684 70.645 87.2087C70.6838 87.422 70.7226 87.6354 70.7601 87.8488C70.8071 88.1057 70.7994 88.3694 70.7374 88.6232Z" fill="white"/>
<path d="M70.7603 87.1291C70.8062 87.3865 70.7979 87.6504 70.7358 87.9044C70.6738 88.1585 70.5594 88.3973 70.3997 88.6061C70.2399 88.8149 70.0383 88.9892 69.8073 89.1182C69.5762 89.2473 69.3207 89.3283 69.0565 89.3563C62.0526 90.1044 55.7827 90.4692 49.9535 90.4692C44.147 90.4692 37.8798 90.1044 30.8531 89.3563C30.5888 89.328 30.3332 89.2467 30.1022 89.1173C29.8711 88.988 29.6695 88.8134 29.5098 88.6044C29.3501 88.3954 29.2357 88.1564 29.1737 87.9022C29.1117 87.648 29.1034 87.384 29.1493 87.1265C29.1868 86.9145 29.2257 86.7011 29.2645 86.489C29.3076 86.2488 29.4427 86.0339 29.642 85.8886C29.8414 85.7433 30.0897 85.6787 30.3361 85.708C37.6132 86.5154 44.0425 86.9079 49.9602 86.9079C55.8791 86.9079 62.3085 86.5127 69.5856 85.708C69.8319 85.6787 70.0803 85.7433 70.2796 85.8886C70.479 86.0339 70.6141 86.2488 70.6572 86.489C70.684 86.7024 70.7228 86.9158 70.7603 87.1291Z" stroke="#1A1D63" stroke-width="2.22706" stroke-linecap="round" stroke-linejoin="round"/>
<path d="M57.4646 132.292C52.4508 132.816 47.3947 132.816 42.3809 132.292C42.182 132.271 41.9979 132.179 41.8638 132.033C41.7296 131.887 41.6548 131.698 41.6536 131.501V130.359C41.6547 130.25 41.6787 130.142 41.7239 130.042C41.7691 129.942 41.8346 129.853 41.9164 129.779C41.9983 129.705 42.0946 129.648 42.1996 129.612C42.3046 129.576 42.416 129.561 42.5269 129.569C47.4509 129.923 52.3946 129.923 57.3186 129.569C57.4295 129.561 57.541 129.575 57.6461 129.611C57.7511 129.647 57.8476 129.704 57.9295 129.778C58.0113 129.852 58.0769 129.942 58.122 130.042C58.1672 130.142 58.1909 130.25 58.1919 130.359V131.491C58.1931 131.689 58.1193 131.881 57.985 132.029C57.8506 132.177 57.6652 132.27 57.4646 132.292Z" fill="#FFBF1F"/>
<path d="M58.1919 129.914V131.002C58.1919 131.509 57.8785 131.933 57.4646 131.987C52.4584 132.637 47.3871 132.637 42.3809 131.987C41.967 131.933 41.6536 131.508 41.6536 131.002V129.914C41.6536 130.42 41.967 130.844 42.3809 130.898C47.3871 131.548 52.4584 131.548 57.4646 130.898C57.8785 130.846 58.1919 130.42 58.1919 129.914Z" fill="#FD8B15"/>
<path d="M57.4646 132.292C52.4508 132.816 47.3947 132.816 42.3809 132.292C42.182 132.271 41.9979 132.179 41.8638 132.033C41.7296 131.887 41.6548 131.698 41.6536 131.501V130.359C41.6547 130.25 41.6787 130.142 41.7239 130.042C41.7691 129.942 41.8346 129.853 41.9164 129.779C41.9983 129.705 42.0946 129.648 42.1996 129.612C42.3046 129.576 42.416 129.561 42.5269 129.569C47.4509 129.923 52.3946 129.923 57.3186 129.569C57.4295 129.561 57.541 129.575 57.6461 129.611C57.7511 129.647 57.8476 129.704 57.9295 129.778C58.0113 129.852 58.0769 129.942 58.122 130.042C58.1672 130.142 58.1909 130.25 58.1919 130.359V131.491C58.1931 131.689 58.1193 131.881 57.985 132.029C57.8506 132.177 57.6652 132.27 57.4646 132.292V132.292Z" stroke="#1A1D63" stroke-width="2.22706" stroke-linecap="round" stroke-linejoin="round"/>
<path d="M50.0774 96.2222H48.596C48.2544 97.1442 47.874 97.9555 46.1715 97.9555V99.4925H47.874V108.267H46.0322V110.012H51.8656V108.267H50.0774V96.2222Z" stroke="#FD8B15" stroke-width="0.653271" stroke-linecap="round" stroke-linejoin="round"/>
<path d="M52.4843 97.2601C52.4843 96.9967 52.6062 96.9018 52.8191 96.9018C53.0321 96.9018 53.154 97.0006 53.154 97.2601V97.4115H53.7876V97.3009C53.7876 96.7201 53.4527 96.3869 52.8017 96.3869C52.1507 96.3869 51.8159 96.7201 51.8159 97.3009C51.8159 98.3388 53.1232 98.4784 53.1232 99.2265C53.1232 99.4899 52.9892 99.5795 52.7776 99.5795C52.566 99.5795 52.4307 99.4859 52.4307 99.2265V98.9631H51.7971V99.1857C51.7971 99.7678 52.1373 100.1 52.795 100.1C53.4527 100.1 53.7929 99.7678 53.7929 99.1857C53.7929 98.1478 52.4843 98.0082 52.4843 97.2601Z" fill="#FD8B15"/>
<path d="M53.9805 96.425V96.944H54.681V100.059H55.3507V96.944H56.0499V96.425H53.9805Z" fill="#FD8B15"/>
<path d="M50.0774 96.2222H48.596C48.2544 97.1442 47.874 97.9555 46.1715 97.9555V99.4925H47.874V108.267H46.0322V110.012H51.8656V108.267H50.0774V96.2222Z" fill="#FD8B15"/>
</g>
<defs>
<clipPath id="clip0_2_987">
<rect x="0.482422" y="0.183746" width="98.9403" height="162.165" rx="8" fill="white"/>
</clipPath>
</defs>
</svg>
